<?xml version="1.0" encoding="UTF-8"?>
<svg version="1.1" xmlns="http://www.w3.org/2000/svg" width="1024" height="1024">
<path d="M0 0 C337.92 0 675.84 0 1024 0 C1024 337.92 1024 675.84 1024 1024 C686.08 1024 348.16 1024 0 1024 C0 686.08 0 348.16 0 0 Z " fill="#FEFEFE" transform="translate(0,0)"/>
<path d="M0 0 C2.63657552 0.84350638 5.27404631 1.68304949 7.9140625 2.515625 C8.64107864 2.74518387 9.36809479 2.97474274 10.11714172 3.21125793 C20.3152585 6.40833148 30.60076878 9.30929464 40.875 12.25 C55.87228928 16.54878387 70.85988642 20.87701679 85.82421875 25.2890625 C86.52700266 25.49626671 87.22978657 25.70347092 87.95386696 25.91695404 C91.54314629 26.97540955 95.13225572 28.03444005 98.72128296 29.09375 C125.10041262 36.87954509 151.50711359 44.55351902 177.96636963 52.06330872 C181.04574217 52.93893707 184.12345957 53.82021721 187.20117188 54.70166016 C191.46020759 55.9192042 195.72791472 57.09945797 200.00195312 58.26318359 C202.17322502 58.86668954 204.34445056 59.47036228 206.515625 60.07421875 C207.5129364 60.33854202 208.5102478 60.6028653 209.53778076 60.87519836 C215.28193397 62.49177641 219.09218343 64.16928413 223.3125 68.4375 C224.80422771 71.42095542 224.5473171 74.5010494 224.61791992 77.77832031 C224.63790606 78.56308998 224.65789219 79.34785965 224.67848396 80.15641022 C224.74406778 82.85937411 224.80055596 85.56242397 224.85546875 88.265625 C224.87604025 89.22740913 224.89661175 90.18919327 224.91780663 91.18012238 C225.513693 119.74029669 225.56933055 148.30887375 225.60174751 176.87427521 C225.61254402 186.26430023 225.63712225 195.65404763 225.68124419 205.0439775 C225.71177983 211.78589845 225.72624499 218.52774705 225.72952431 225.26973557 C225.73182249 229.23796519 225.7400748 233.205913 225.76598549 237.17406464 C225.86582155 253.30201722 225.44999659 269.15898842 223.47338867 285.18066406 C223.39129107 285.84772857 223.30919347 286.51479308 223.22460806 287.20207167 C221.58512145 300.20359583 219.23753774 313.09856782 215.5625 325.6875 C215.30573486 326.57099121 215.04896973 327.45448242 214.78442383 328.36474609 C199.771935 378.97827985 168.09917593 424.07684148 126.3125 456.4375 C125.25741582 457.31280161 124.20552399 458.19196049 123.15625 459.07421875 C107.47539007 472.14345267 90.07181527 483.39308572 72.3125 493.4375 C71.14364258 494.10096436 71.14364258 494.10096436 69.95117188 494.77783203 C46.8716301 507.80078476 23.05391641 518.94161452 -1.6875 528.4375 C-2.47640625 528.75831543 -3.2653125 529.07913086 -4.078125 529.40966797 C-15.9483335 533.91624314 -25.46233836 530.55906489 -36.625 525.75 C-38.03589929 525.15734021 -39.44720226 524.56564062 -40.85888672 523.97485352 C-45.15156305 522.16628206 -49.42294034 520.31129306 -53.6875 518.4375 C-54.33507263 518.15314087 -54.98264526 517.86878174 -55.64984131 517.57580566 C-101.33313095 497.44607836 -142.58190665 470.67673426 -179.125 436.6875 C-180.10025635 435.78499512 -180.10025635 435.78499512 -181.09521484 434.86425781 C-185.02270961 431.17384532 -188.63546908 427.31795177 -192.14428711 423.22802734 C-193.9504969 421.13235536 -195.84932499 419.13495407 -197.75 417.125 C-208.10923688 405.6147368 -217.1220321 392.71169443 -224.69042969 379.21289062 C-225.67474303 377.46021516 -226.68489653 375.72213321 -227.6953125 373.984375 C-252.45635824 330.47101236 -256.86445815 280.68877654 -256.8218255 231.71407604 C-256.81924773 227.80875269 -256.82165551 223.90343138 -256.82321167 219.99810791 C-256.82502388 213.41507543 -256.8226584 206.8320542 -256.81787109 200.24902344 C-256.81308368 193.59146383 -256.81301899 186.93392673 -256.81787109 180.27636719 C-256.83198465 160.01898845 -256.80610411 139.76231633 -256.70637512 119.50515747 C-256.68763772 115.63357697 -256.67554141 111.76198793 -256.66345215 107.89038086 C-256.64325387 102.43665735 -256.59712297 96.98387079 -256.52535629 91.53058624 C-256.50358113 89.63334016 -256.48990289 87.7359804 -256.48511124 85.83861542 C-256.47682594 83.30454169 -256.4380169 80.77284704 -256.39013672 78.23925781 C-256.39446087 77.52354362 -256.39878502 76.80782944 -256.4032402 76.07042694 C-256.2416509 70.50728444 -254.5305792 68.18753609 -250.6875 64.4375 C-247.99624207 63.22777807 -245.68585371 62.38815121 -242.875 61.625 C-242.07022217 61.38837646 -241.26544434 61.15175293 -240.4362793 60.90795898 C-237.52629412 60.06086969 -234.60760981 59.24898879 -231.6875 58.4375 C-229.83637575 57.91337152 -227.98526456 57.38919591 -226.13449097 56.86383057 C-219.9533495 55.10982505 -213.76702394 53.37484455 -207.578125 51.6484375 C-196.91994791 48.67293241 -186.30391982 45.55804788 -175.6875 42.4375 C-169.79227584 40.70625482 -163.89626161 38.97770812 -158 37.25 C-157.16917908 37.0064679 -156.33835815 36.76293579 -155.48236084 36.51202393 C-143.07537843 32.87648683 -130.66095036 29.26693321 -118.2421875 25.671875 C-117.15864707 25.35819473 -117.15864707 25.35819473 -116.05321693 25.03817749 C-112.33385433 23.96147712 -108.61445555 22.88490178 -104.89505005 21.80834961 C-83.10407782 15.50095643 -61.31644194 9.18429087 -39.5625 2.75 C-38.18099258 2.34154343 -38.18099258 2.34154343 -36.77157593 1.92483521 C-34.2406683 1.17608497 -31.71007054 0.4263022 -29.1796875 -0.32421875 C-28.45194626 -0.53987488 -27.72420502 -0.75553101 -26.97441101 -0.97772217 C-16.21472529 -4.17662522 -10.61009146 -3.50482818 0 0 Z " fill="#F59424" transform="translate(527.6875,108.5625)"/>
<path d="M0 0 C7.6718634 1.91796585 15.27338879 3.87821032 22.859375 6.08203125 C24.3681295 6.51758835 24.3681295 6.51758835 25.90736389 6.96194458 C29.18887526 7.90995731 32.46945604 8.86114552 35.75 9.8125 C38.07768235 10.48588204 40.40540108 11.15913836 42.7331543 11.83227539 C59.71367109 16.74564619 76.68644974 21.68567734 93.65380859 26.64428711 C104.53806822 29.82500731 115.42515819 32.99562645 126.31640625 36.15234375 C129.98019858 37.21509385 133.6439549 38.27796803 137.30770874 39.34085083 C139.63205677 40.01467374 141.95661137 40.68778463 144.28140259 41.3600769 C166.95975767 47.91874618 189.48700671 54.8906337 212 62 C212 114.14 212 166.28 212 220 C142.04 220 72.08 220 0 220 C0 147.4 0 74.8 0 0 Z " fill="#FEAF27" transform="translate(512,135)"/>
<path d="M0 0 C0 72.27 0 144.54 0 219 C-69.96 219 -139.92 219 -212 219 C-212 166.86 -212 114.72 -212 61 C-203.00160601 57.62560225 -203.00160601 57.62560225 -198.87719727 56.47290039 C-197.94744583 56.21107971 -197.0176944 55.94925903 -196.05976868 55.67950439 C-195.07195908 55.40499451 -194.08414948 55.13048462 -193.06640625 54.84765625 C-192.01289474 54.55163513 -190.95938324 54.25561401 -189.87394714 53.95062256 C-187.61349711 53.31560048 -185.35264554 52.68200632 -183.09143066 52.04971313 C-177.08592727 50.36968244 -171.08394152 48.67718988 -165.08203125 46.984375 C-163.87707001 46.64465164 -162.67210876 46.30492828 -161.43063354 45.95491028 C-150.85251226 42.9679391 -140.29551274 39.91243255 -129.75 36.8125 C-128.92065948 36.56880676 -128.09131897 36.32511353 -127.23684692 36.07403564 C-123.09950737 34.85784119 -118.96268832 33.63988922 -114.82617188 32.42089844 C-110.09907341 31.02835163 -105.3701966 29.64193386 -100.640625 28.2578125 C-99.85586288 28.02813278 -99.07110077 27.79845306 -98.26255798 27.56181335 C-94.22225244 26.3796011 -90.1816703 25.19833933 -86.14086914 24.01782227 C-77.01196301 21.34983147 -67.8856674 18.67323933 -58.76342964 15.98254108 C-52.81237724 14.22736027 -46.86021511 12.47597388 -40.90742302 10.72670269 C-37.18310949 9.63204012 -33.45941758 8.53535039 -29.73706055 7.43405151 C-26.21129632 6.39094542 -22.68407669 5.35291439 -19.15572548 4.31859398 C-17.84081916 3.93213158 -16.52646494 3.54378524 -15.21269798 3.15346718 C-13.40002756 2.6152247 -11.58519215 2.08428953 -9.77026367 1.55371094 C-8.7480925 1.25237244 -7.72592133 0.95103394 -6.67277527 0.64056396 C-4 0 -4 0 0 0 Z " fill="#1F365A" transform="translate(512,136)"/>
<path d="M0 0 C69.96 0 139.92 0 212 0 C212 66.88257151 190.56899912 121.36884419 143.4375 168.8125 C142.57543945 169.68382568 141.71337891 170.55515137 140.82519531 171.45288086 C134.85959281 177.38968312 128.60605605 182.78933583 122 188 C121.26773193 188.58096436 120.53546387 189.16192871 119.78100586 189.76049805 C110.16798849 197.32545994 100.34629207 204.47219009 90 211 C89.28602051 211.45165527 88.57204102 211.90331055 87.83642578 212.36865234 C21.48601945 254 21.48601945 254 0 254 C0 170.18 0 86.36 0 0 Z " fill="#1F365A" transform="translate(512,356)"/>
<path d="M0 0 C69.96 0 139.92 0 212 0 C212 83.82 212 167.64 212 254 C165.73772454 246.28962076 113.99965023 209.49799029 80 179 C79.2258374 178.31043213 79.2258374 178.31043213 78.43603516 177.60693359 C67.07973912 167.46648427 56.38970511 157.01280779 47 145 C46.23429687 144.06285156 45.46859375 143.12570312 44.6796875 142.16015625 C28.11195429 121.46380785 16.6054075 98.3131604 9 73 C8.63261719 71.80761719 8.26523437 70.61523438 7.88671875 69.38671875 C1.32521902 46.6114745 0 23.66406026 0 0 Z " fill="#FEAF27" transform="translate(300,356)"/>
<path d="M0 0 C0.85474411 -0.00807175 1.70948822 -0.01614349 2.59013367 -0.02445984 C4.40341147 -0.03831759 6.21671554 -0.04903215 8.0300293 -0.05688477 C10.80242507 -0.07408355 13.57362423 -0.11795149 16.34570312 -0.16210938 C18.10545996 -0.17223714 19.86522696 -0.18075298 21.625 -0.1875 C22.4542952 -0.20500809 23.28359039 -0.22251617 24.13801575 -0.24055481 C29.86477719 -0.21900011 29.86477719 -0.21900011 32.86181641 1.89941406 C34.73171527 4.55014373 36.29667561 7.20765059 37.796875 10.0859375 C38.40515137 11.24053467 39.01342773 12.39513184 39.64013672 13.5847168 C39.95609802 14.19197601 40.27205933 14.79923523 40.59759521 15.42489624 C42.24408537 18.5874518 43.91512657 21.73696241 45.5859375 24.88671875 C45.91805237 25.51376205 46.25016724 26.14080536 46.59234619 26.78684998 C49.57546289 32.39997847 52.68952412 37.93166749 55.88671875 43.42578125 C56.3444165 44.21412354 56.80211426 45.00246582 57.27368164 45.81469727 C59.12681718 49.22148642 59.12681718 49.22148642 61.51171875 52.23828125 C62.25893188 50.82687866 62.25893188 50.82687866 63.02124023 49.38696289 C66.12158203 43.53076172 69.22192383 37.67456055 72.32226562 31.81835938 C72.71330475 31.07935394 73.10434387 30.34034851 73.50723267 29.57894897 C74.30071609 28.08090788 75.09545993 26.58353374 75.89144897 25.08682251 C77.96189869 21.1897126 80.00662685 17.28201138 82.01220703 13.35107422 C82.61900047 12.1733268 82.61900047 12.1733268 83.23805237 10.9717865 C84.01141432 9.46931139 84.77718096 7.96289576 85.5342865 6.4521637 C88.17451257 1.35068331 88.17451257 1.35068331 91.51171875 0.23828125 C94.3768486 0.14105249 97.21696368 0.09833156 100.08203125 0.10546875 C100.91886444 0.10451202 101.75569763 0.1035553 102.6178894 0.10256958 C104.38474605 0.10188952 106.1516052 0.10373168 107.91845703 0.10791016 C110.63319452 0.11327429 113.34776757 0.10795242 116.0625 0.1015625 C117.77734412 0.10222305 119.49218813 0.10350373 121.20703125 0.10546875 C122.02366241 0.10344452 122.84029358 0.10142029 123.68167114 0.09933472 C129.39675911 0.12332161 129.39675911 0.12332161 130.51171875 1.23828125 C130.60747184 2.74379299 130.63360062 4.25379155 130.63197327 5.76234436 C130.63403526 7.22846916 130.63403526 7.22846916 130.63613892 8.72421265 C130.63254364 9.80530304 130.62894836 10.88639343 130.62524414 12.00024414 C130.62539017 13.13180435 130.62553619 14.26336456 130.62568665 15.42921448 C130.62498694 19.18980796 130.61719186 22.95035262 130.609375 26.7109375 C130.60751102 29.31025668 130.60608703 31.90957622 130.60508728 34.50889587 C130.60165216 40.66416702 130.59376131 46.81941785 130.58373779 52.97468132 C130.57257569 59.98061471 130.56706596 66.98654892 130.56204236 73.99248898 C130.55157867 88.40776258 130.53397983 102.82302129 130.51171875 117.23828125 C124.97583342 117.262929 119.43997975 117.28111621 113.90405273 117.29321289 C112.01928145 117.29825369 110.1345141 117.30508623 108.24975586 117.3137207 C105.54670239 117.32579742 102.84370044 117.33151193 100.140625 117.3359375 C98.86875084 117.34367943 98.86875084 117.34367943 97.57118225 117.35157776 C95.55100807 117.3517732 93.53093941 117.30034336 91.51171875 117.23828125 C89.95513393 115.68169643 90.34862476 114.15960389 90.30639648 111.99389648 C90.28645126 111.09303818 90.26650604 110.19217987 90.24595642 109.26402283 C90.22924393 108.28486404 90.21253143 107.30570526 90.1953125 106.296875 C90.16414085 104.80076439 90.16414085 104.80076439 90.13233948 103.27442932 C90.06673238 100.07495282 90.00790741 96.87539143 89.94921875 93.67578125 C89.90604413 91.51236086 89.8624302 89.34894919 89.81835938 87.18554688 C89.71103972 81.86988251 89.60929448 76.55413291 89.51171875 71.23828125 C88.84785156 72.30046875 88.18398438 73.36265625 87.5 74.45703125 C82.1875 82.95703125 82.1875 82.95703125 80.85400391 85.08203125 C79.9371583 86.55485416 79.03102345 88.03438492 78.13427734 89.51953125 C77.6955127 90.24140625 77.25674805 90.96328125 76.8046875 91.70703125 C76.41176514 92.36123047 76.01884277 93.01542969 75.61401367 93.68945312 C74.51171875 95.23828125 74.51171875 95.23828125 72.51171875 96.23828125 C68.72636395 96.53280607 64.93219363 96.51623506 61.13671875 96.55078125 C59.55503906 96.59428711 59.55503906 96.59428711 57.94140625 96.63867188 C56.925625 96.64705078 55.90984375 96.65542969 54.86328125 96.6640625 C53.93338379 96.67864502 53.00348633 96.69322754 52.04541016 96.70825195 C47.8002968 95.9208321 46.16193019 93.16303452 43.77246094 89.76464844 C43.20688477 88.86391602 42.64130859 87.96318359 42.05859375 87.03515625 C41.43984375 86.05546875 40.82109375 85.07578125 40.18359375 84.06640625 C39.23226562 82.54273438 39.23226562 82.54273438 38.26171875 80.98828125 C37.2871875 79.44140625 37.2871875 79.44140625 36.29296875 77.86328125 C34.69449583 75.32453014 33.10094737 72.78282555 31.51171875 70.23828125 C31.50141129 70.81235214 31.49110382 71.38642303 31.48048401 71.97789001 C31.37264441 77.93093787 31.25802898 83.8838274 31.1394043 89.83666992 C31.09598287 92.06092021 31.0543133 94.2852054 31.0144043 96.50952148 C30.95687569 99.6991632 30.89313191 102.88862805 30.828125 106.078125 C30.80305626 107.57967384 30.80305626 107.57967384 30.77748108 109.11155701 C30.75753586 110.03243607 30.73759064 110.95331512 30.71704102 111.90209961 C30.70149673 112.71706406 30.68595245 113.5320285 30.66993713 114.37168884 C30.51171875 116.23828125 30.51171875 116.23828125 29.51171875 117.23828125 C26.62738055 117.32693333 23.76709717 117.35349421 20.8828125 117.3359375 C19.58646629 117.33381508 19.58646629 117.33381508 18.26393127 117.33164978 C15.49232583 117.32603364 12.72079995 117.31347844 9.94921875 117.30078125 C8.07487095 117.29576833 6.2005219 117.29120506 4.32617188 117.28710938 C-0.27867669 117.27605897 -4.88346546 117.25878355 -9.48828125 117.23828125 C-9.51161094 102.13103434 -9.52926077 87.02378882 -9.54009342 71.91652775 C-9.54525623 64.90243491 -9.55229864 57.88835325 -9.5637207 50.87426758 C-9.57472813 44.11160057 -9.58055744 37.34894761 -9.58315849 30.58627129 C-9.58501328 27.99975845 -9.58863492 25.41324628 -9.59401131 22.82673836 C-9.60121776 19.2178927 -9.60227236 15.60909578 -9.60180664 12.00024414 C-9.60540192 10.91915375 -9.60899719 9.83806335 -9.61270142 8.72421265 C-9.61132675 7.74679611 -9.60995209 6.76937958 -9.60853577 5.76234436 C-9.60945756 4.90784226 -9.61037935 4.05334017 -9.61132908 3.17294407 C-9.30649691 -1.61988711 -3.67691593 0.03251397 0 0 Z " fill="#1F3659" transform="translate(284.48828125,669.76171875)"/>
<path d="M0 0 C1.6874269 0.00015917 3.37485866 0.00585622 5.06225586 0.01586914 C6.39189613 0.01799156 6.39189613 0.01799156 7.74839783 0.02015686 C10.59133215 0.02577324 13.43418892 0.03832848 16.27709961 0.05102539 C18.19962452 0.05603828 20.12215065 0.06060155 22.04467773 0.06469727 C26.76803925 0.07489891 31.49123219 0.09447102 36.21459961 0.11352539 C36.21459961 12.98352539 36.21459961 25.85352539 36.21459961 39.11352539 C45.12459961 39.11352539 54.03459961 39.11352539 63.21459961 39.11352539 C63.20299805 36.38200195 63.19139648 33.65047852 63.17944336 30.83618164 C63.17165319 28.2018241 63.1655762 25.56746782 63.15966797 22.93310547 C63.15462729 21.09683664 63.14779484 19.26057185 63.13916016 17.42431641 C63.12708289 14.79076138 63.1213688 12.15725923 63.11694336 9.52368164 C63.11178207 8.69763931 63.10662079 7.87159698 63.1013031 7.02052307 C63.10110756 5.05116172 63.15255809 3.08190926 63.21459961 1.11352539 C65.08422679 -0.75610179 67.76123522 -0.01533764 70.24841309 -0.02542114 C71.09319214 -0.02339691 71.93797119 -0.02137268 72.80834961 -0.01928711 C73.67020874 -0.02024384 74.53206787 -0.02120056 75.42004395 -0.02218628 C77.24593173 -0.0228681 79.07182192 -0.02101365 80.89770508 -0.0168457 C83.70261039 -0.01149747 86.50735556 -0.0167906 89.31225586 -0.02319336 C91.08178747 -0.02253258 92.85131897 -0.02125142 94.62084961 -0.01928711 C95.46562866 -0.02131134 96.31040771 -0.02333557 97.18078613 -0.02542114 C103.0996493 -0.00142492 103.0996493 -0.00142492 104.21459961 1.11352539 C104.3103527 2.61903713 104.33648148 4.12903569 104.33485413 5.6375885 C104.33691612 7.1037133 104.33691612 7.1037133 104.33901978 8.59945679 C104.33362686 10.22109238 104.33362686 10.22109238 104.328125 11.87548828 C104.32827103 13.00704849 104.32841705 14.1386087 104.3285675 15.30445862 C104.3278678 19.0650521 104.32007272 22.82559676 104.31225586 26.58618164 C104.31039188 29.18550082 104.30896789 31.78482036 104.30796814 34.38414001 C104.30453302 40.53941116 104.29664217 46.69466199 104.28661865 52.84992546 C104.27545655 59.85585885 104.26994682 66.86179306 104.26492321 73.86773312 C104.25445953 88.28300672 104.23686069 102.69826543 104.21459961 117.11352539 C98.53629883 117.13817244 92.85802891 117.15636001 87.1796875 117.16845703 C85.24641376 117.17349795 83.31314385 117.18033058 81.37988281 117.18896484 C78.60733089 117.20104104 75.8348292 117.20675596 73.06225586 117.21118164 C71.75757103 117.21892357 71.75757103 117.21892357 70.42652893 117.2268219 C68.35554147 117.22701724 66.28465637 117.17560707 64.21459961 117.11352539 C63.21459961 116.11352539 63.21459961 116.11352539 63.10107422 112.23632812 C63.1012334 110.50658372 63.10693111 108.77683458 63.11694336 107.04711914 C63.11835831 106.13849625 63.11977325 105.22987335 63.12123108 104.29371643 C63.12684768 101.37945318 63.13940296 98.46526558 63.15209961 95.55102539 C63.15711247 93.58032337 63.16167575 91.60962015 63.16577148 89.63891602 C63.17597344 84.79706625 63.19554552 79.95538092 63.21459961 75.11352539 C54.30459961 75.11352539 45.39459961 75.11352539 36.21459961 75.11352539 C36.21459961 88.97352539 36.21459961 102.83352539 36.21459961 117.11352539 C29.63522461 117.13415039 23.05584961 117.15477539 16.27709961 117.17602539 C14.19792236 117.18512939 12.11874512 117.1942334 9.9765625 117.20361328 C8.33846094 117.2065324 6.70035867 117.20908097 5.06225586 117.21118164 C3.774422 117.21885559 3.774422 117.21885559 2.46057129 117.22668457 C0.37823909 117.22699449 -1.70400399 117.17594715 -3.78540039 117.11352539 C-5.38288539 115.51604039 -4.91139739 113.84760906 -4.91238403 111.63415527 C-4.91520386 110.66659805 -4.91802368 109.69904083 -4.92092896 108.7021637 C-4.91890472 107.63199509 -4.91688049 106.56182648 -4.91479492 105.45922852 C-4.91654724 104.33902817 -4.91829956 103.21882782 -4.92010498 102.06468201 C-4.92452616 98.3413643 -4.92158457 94.61809363 -4.91821289 90.89477539 C-4.91888585 88.32027172 -4.91985581 85.7457681 -4.92111206 83.17126465 C-4.9225894 77.76740864 -4.92052793 72.36357049 -4.91577148 66.9597168 C-4.91032889 60.70391067 -4.91209156 54.44813713 -4.91759789 48.19233179 C-4.92267473 42.18501489 -4.92214747 36.17771399 -4.91921616 30.1703949 C-4.91854662 27.60900366 -4.91937623 25.04761159 -4.92169571 22.48622131 C-4.92422066 18.91339886 -4.92038385 15.34063996 -4.91479492 11.76782227 C-4.91681915 10.69765366 -4.91884338 9.62748505 -4.92092896 8.52488708 C-4.91810913 7.55732986 -4.91528931 6.58977264 -4.91238403 5.59289551 C-4.91200701 4.74706657 -4.91162998 3.90123764 -4.91124153 3.02977753 C-4.67722839 -0.53366909 -3.72903888 0.11183509 0 0 Z " fill="#1E3457" transform="translate(644.785400390625,669.886474609375)"/>
<path d="M0 0 C4.78712933 -0.09886835 9.57366475 -0.17146623 14.36157227 -0.21972656 C15.99025829 -0.23984381 17.61887208 -0.26714137 19.24731445 -0.30175781 C21.58823458 -0.35027429 23.92820018 -0.37296632 26.26953125 -0.390625 C27.36186821 -0.42159271 27.36186821 -0.42159271 28.47627258 -0.45318604 C30.53833008 -0.45410156 30.53833008 -0.45410156 34 0 C36.4202314 2.63366815 37.70174662 5.36998233 38.95092773 8.69360352 C39.48547577 10.10066307 39.48547577 10.10066307 40.03082275 11.53614807 C40.6014444 13.06706337 40.6014444 13.06706337 41.18359375 14.62890625 C41.79566681 16.2456852 41.79566681 16.2456852 42.42010498 17.89512634 C43.30315528 20.22902823 44.18338811 22.56399764 45.06112671 24.89990234 C47.15746004 30.47834941 49.26962553 36.05078471 51.38370705 41.62252426 C51.86941065 42.90268587 52.35489146 44.18293203 52.84015465 45.46326065 C59.00112803 61.71396447 65.37643707 77.87970462 71.77709961 94.03735352 C72.18164368 95.06212296 72.58618774 96.0868924 73.00299072 97.14271545 C73.75260631 99.04158516 74.50487582 100.93941045 75.26043701 102.83592224 C75.59367981 103.68090775 75.92692261 104.52589325 76.27026367 105.39648438 C76.55778 106.12105835 76.84529633 106.84563232 77.14152527 107.59216309 C78.24220074 110.67932098 79.09960049 113.84860173 80 117 C66.47 117 52.94 117 39 117 C34 100 34 100 34 98 C18.16 98.495 18.16 98.495 2 99 C0.35 104.94 -1.3 110.88 -3 117 C-16.86 117 -30.72 117 -45 117 C-41.62824039 105.76080131 -41.62824039 105.76080131 -39.87109375 101.46655273 C-39.28618164 100.0237368 -39.28618164 100.0237368 -38.68945312 98.55177307 C-38.27630859 97.5433989 -37.86316406 96.53502472 -37.4375 95.49609375 C-36.53901714 93.27642385 -35.64192383 91.05619107 -34.74609375 88.83544922 C-34.28960449 87.7038739 -33.83311523 86.57229858 -33.36279297 85.40643311 C-31.19511932 79.98812274 -29.09319132 74.54509664 -27 69.09765625 C-26.58806396 68.02566986 -26.17612793 66.95368347 -25.75170898 65.84921265 C-24.49983933 62.58747199 -23.24983901 59.32501922 -22 56.0625 C-21.16682998 53.89121337 -20.33349671 51.71998937 -19.5 49.54882812 C-18.66665477 47.37760873 -17.8333214 45.20638479 -17 43.03515625 C-16.59330078 41.97551666 -16.18660156 40.91587708 -15.76757812 39.8241272 C-13.58077073 34.12494396 -11.39757126 28.42440949 -9.21875 22.72216797 C-8.31253275 20.35513069 -7.40628371 17.98810558 -6.5 15.62109375 C-6.07847656 14.51532486 -5.65695312 13.40955597 -5.22265625 12.27027893 C-4.82949219 11.24450241 -4.43632812 10.21872589 -4.03125 9.16186523 C-3.68642578 8.25943588 -3.34160156 7.35700653 -2.98632812 6.42723083 C-2.0892672 4.21967548 -1.09960155 2.11266251 0 0 Z " fill="#1E3558" transform="translate(468,670)"/>
<path d="M0 0 C2.14985894 1.6010233 3.92296848 3.13114492 5.8125 5 C6.36075439 5.52456787 6.90900879 6.04913574 7.47387695 6.58959961 C9.33115817 8.37806388 11.16647684 10.18719722 13 12 C13.70350586 12.68980957 14.40701172 13.37961914 15.13183594 14.09033203 C18.69257376 17.58559772 22.23989806 21.09441243 25.76171875 24.62890625 C26.33881592 25.20713135 26.91591309 25.78535645 27.51049805 26.38110352 C29 28 29 28 31 31 C35.388121 29.34094604 38.13617523 26.02717174 41.3046875 22.71484375 C42.53992847 21.44944393 43.77561952 20.18448332 45.01171875 18.91992188 C46.94797077 16.92787787 48.88006695 14.93222336 50.80419922 12.9284668 C52.66817439 10.99184757 54.54757194 9.0713152 56.4296875 7.15234375 C57.28311234 6.25079811 57.28311234 6.25079811 58.15377808 5.33103943 C61.5768912 1.86518228 63.8895459 0.09012498 69 0 C70.984375 1.08203125 70.984375 1.08203125 72.75 2.8125 C73.41386719 3.45832031 74.07773437 4.10414063 74.76171875 4.76953125 C75.50035156 5.50558594 76.23898437 6.24164063 77 7 C77.91394531 7.80824219 78.82789063 8.61648438 79.76953125 9.44921875 C80.69121094 10.29097656 81.61289062 11.13273437 82.5625 12 C83.43003906 12.78375 84.29757812 13.5675 85.19140625 14.375 C87 17 87 17 87.02929688 20.21118164 C85.64931 25.29088192 83.08245065 27.68150636 79.33984375 31.24609375 C78.67537735 31.90207047 78.01091095 32.55804718 77.3263092 33.23390198 C75.21042044 35.31632826 73.07460055 37.37687048 70.9375 39.4375 C69.49537642 40.84951526 68.05460475 42.26291267 66.61523438 43.67773438 C63.09228253 47.13469638 59.55130998 50.57218631 56 54 C59.73273392 58.47855112 63.59103574 62.69169418 67.80078125 66.72265625 C68.87102549 67.76567838 69.94067009 68.80931611 71.00976562 69.85351562 C72.66750461 71.46786991 74.32865392 73.07796224 76.00024414 74.67797852 C77.63285651 76.24390504 79.24900029 77.82536734 80.86328125 79.41015625 C81.36426834 79.88219986 81.86525543 80.35424347 82.38142395 80.84059143 C84.71205969 83.15300218 85.98410854 84.952667 87.03417969 88.08032227 C86.99095753 91.77242052 86.16865334 92.72006634 83.58984375 95.3046875 C82.84669922 96.05234375 82.10355469 96.8 81.33789062 97.5703125 C80.54576172 98.33085937 79.75363281 99.09140625 78.9375 99.875 C77.78991211 101.050625 77.78991211 101.050625 76.61914062 102.25 C71.00853041 107.76926352 71.00853041 107.76926352 67.18920898 108.64306641 C62.34592111 107.66647449 59.97001133 104.7156495 56.6328125 101.21875 C55.95322479 100.53067261 55.27363708 99.84259521 54.57345581 99.13366699 C52.40947086 96.93613792 50.26729035 94.71866348 48.125 92.5 C46.66024451 91.0051468 45.19411372 89.51163988 43.7265625 88.01953125 C40.13490544 84.36177579 36.5626627 80.68599294 33 77 C28.52370524 80.72738964 24.32565524 84.58147137 20.3125 88.80078125 C19.27419446 89.8711775 18.23510894 90.9408176 17.1953125 92.00976562 C15.58834544 93.66624225 13.98658446 95.32662883 12.39746094 97.00024414 C10.84133213 98.6353243 9.26654196 100.25035825 7.6875 101.86328125 C7.22061768 102.36426834 6.75373535 102.86525543 6.27270508 103.38142395 C2.74404417 106.9384829 -0.03419759 107.83462124 -5 108 C-7.1171875 106.8828125 -7.1171875 106.8828125 -8.875 105.125 C-9.53242188 104.47917969 -10.18984375 103.83335937 -10.8671875 103.16796875 C-11.57101562 102.45253906 -12.27484375 101.73710937 -13 101 C-13.82757813 100.25363281 -14.65515625 99.50726563 -15.5078125 98.73828125 C-16.33023437 97.97902344 -17.15265625 97.21976562 -18 96.4375 C-18.763125 95.73496094 -19.52625 95.03242188 -20.3125 94.30859375 C-22.51492608 91.29555251 -22.54313689 89.6577626 -22 86 C-20.71484375 83.875 -20.71484375 83.875 -18.9375 82 C-18.30457031 81.32710938 -17.67164063 80.65421875 -17.01953125 79.9609375 C-14.572833 77.58522663 -12.04195893 75.3610343 -9.3828125 73.2265625 C-7.85896891 72.02824461 -7.85896891 72.02824461 -7 70 C-6.34 70 -5.68 70 -5 70 C-5 69.34 -5 68.68 -5 68 C-3.19827911 66.26687254 -1.27049419 64.72701344 0.6640625 63.14453125 C2.67587528 61.29756601 4.38466511 59.44325254 6.14599609 57.3659668 C6.68179291 56.73563034 7.21758972 56.10529388 7.7696228 55.45585632 C8.37865952 54.73520744 8.37865952 54.73520744 9 54 C8.09644775 53.12786865 7.19289551 52.2557373 6.26196289 51.35717773 C2.90523817 48.10927021 -0.43141176 44.84136673 -3.76245117 41.56713867 C-5.20531527 40.15439835 -6.65352522 38.74709603 -8.10717773 37.34545898 C-10.19913215 35.32650469 -12.27090671 33.28859661 -14.33984375 31.24609375 C-14.99089584 30.62600937 -15.64194794 30.00592499 -16.31272888 29.36705017 C-19.32797903 26.3540754 -20.85489758 24.4715907 -22.1315918 20.32226562 C-21.97517107 16.37315002 -21.33215504 15.33432667 -18.5546875 12.59765625 C-17.80703125 11.85322266 -17.059375 11.10878906 -16.2890625 10.34179688 C-15.09410156 9.21354492 -15.09410156 9.21354492 -13.875 8.0625 C-13.1015625 7.28326172 -12.328125 6.50402344 -11.53125 5.70117188 C-4.94538392 -0.71049468 -4.94538392 -0.71049468 0 0 Z " fill="#FEFDFC" transform="translate(377,398)"/>
<path d="M0 0 C32.67 0 65.34 0 99 0 C99 10.89 99 21.78 99 33 C89.1 33 79.2 33 69 33 C69 60.72 69 88.44 69 117 C56.13 117 43.26 117 30 117 C28.24560837 115.24560837 28.88017037 112.94502544 28.87557983 110.60829163 C28.87917511 109.8357756 28.88277039 109.06325958 28.88647461 108.26733398 C28.88632858 107.4576416 28.88618256 106.64794922 28.8860321 105.8137207 C28.88673146 103.12448492 28.8945249 100.43531751 28.90234375 97.74609375 C28.90420785 95.88664284 28.90563179 94.02719144 28.90663147 92.16773987 C28.91045729 87.26370904 28.92028812 82.35970764 28.93133545 77.45568848 C28.94154819 72.45548908 28.94612879 67.45528494 28.95117188 62.45507812 C28.96191033 52.63670372 28.97950765 42.8183589 29 33 C19.43 33 9.86 33 0 33 C0 22.11 0 11.22 0 0 Z " fill="#1E3457" transform="translate(531,670)"/>
<path d="M0 0 C1.51013672 -0.00290039 1.51013672 -0.00290039 3.05078125 -0.00585938 C4.09621094 0.01798828 5.14164062 0.04183594 6.21875 0.06640625 C7.78689453 0.0499707 7.78689453 0.0499707 9.38671875 0.03320312 C16.9454985 0.10579064 16.9454985 0.10579064 20.02441406 2.1887207 C22.32064492 5.49575636 22.22355183 8.36039063 22.109375 12.23828125 C22.10371521 12.96509094 22.09805542 13.69190063 22.09222412 14.44073486 C22.06989553 16.7541387 22.01971048 19.06597345 21.96875 21.37890625 C21.94868023 22.95049841 21.93043029 24.52211493 21.9140625 26.09375 C21.87004293 29.93940342 21.80104375 33.78388914 21.71875 37.62890625 C22.76329346 37.6131958 23.80783691 37.59748535 24.8840332 37.58129883 C28.75846652 37.52700928 32.63286619 37.49255995 36.50756836 37.46411133 C38.1847092 37.44902241 39.86181057 37.42854877 41.53881836 37.40258789 C43.94915504 37.36620814 46.35897019 37.34918139 48.76953125 37.3359375 C49.51962967 37.32045364 50.26972809 37.30496979 51.04255676 37.28901672 C53.93736928 37.28808033 56.16119592 37.29956484 58.69067383 38.79370117 C60.13078994 41.36443326 60.10736226 43.3450701 60.1171875 46.28515625 C60.12105469 47.38988281 60.12492187 48.49460938 60.12890625 49.6328125 C60.11730469 50.78652344 60.10570312 51.94023437 60.09375 53.12890625 C60.10535156 54.28261719 60.11695313 55.43632812 60.12890625 56.625 C60.12503906 57.72972656 60.12117188 58.83445312 60.1171875 59.97265625 C60.11380371 60.98521484 60.11041992 61.99777344 60.10693359 63.04101562 C59.71875 65.62890625 59.71875 65.62890625 58.69067383 67.46411133 C55.55437728 69.31668912 52.30419873 68.99483914 48.76953125 68.921875 C47.61060616 68.91550774 47.61060616 68.91550774 46.42826843 68.90901184 C43.96224008 68.89222808 41.49703104 68.85457772 39.03125 68.81640625 C37.35873577 68.80135896 35.68620872 68.78767063 34.01367188 68.77539062 C29.91504922 68.74232571 25.81703849 68.69054653 21.71875 68.62890625 C21.73446045 69.67344971 21.7501709 70.71799316 21.76635742 71.79418945 C21.82064697 75.66862277 21.8550963 79.54302244 21.88354492 83.41772461 C21.89863384 85.09486545 21.91910748 86.77196682 21.94506836 88.44897461 C21.98144811 90.85931129 21.99847486 93.26912644 22.01171875 95.6796875 C22.02720261 96.42978592 22.04268646 97.17988434 22.05863953 97.95271301 C22.05957853 100.85559854 22.05329244 103.0707821 20.53808594 105.59863281 C16.46931046 107.90274345 11.32633922 107.09566077 6.78125 107.06640625 C5.68361328 107.08638672 4.58597656 107.10636719 3.45507812 107.12695312 C2.39869141 107.12630859 1.34230469 107.12566406 0.25390625 107.125 C-1.19423462 107.12777954 -1.19423462 107.12777954 -2.67163086 107.13061523 C-6.16369659 106.45925261 -7.27604504 105.56569298 -9.28125 102.62890625 C-9.63064929 99.87804434 -9.75010179 97.54055065 -9.671875 94.80078125 C-9.66621521 94.05177551 -9.66055542 93.30276978 -9.65472412 92.53106689 C-9.63239057 90.14635425 -9.58220386 87.76316217 -9.53125 85.37890625 C-9.51118091 83.75913634 -9.49293085 82.13934279 -9.4765625 80.51953125 C-9.43253624 76.55540659 -9.36353298 72.59241393 -9.28125 68.62890625 C-10.79477051 68.66818237 -10.79477051 68.66818237 -12.33886719 68.70825195 C-16.08831542 68.79886409 -19.83766728 68.85619401 -23.58789062 68.90356445 C-25.20980105 68.92868397 -26.83159854 68.96278653 -28.453125 69.00610352 C-30.78674171 69.06687478 -33.11886048 69.09513919 -35.453125 69.1171875 C-36.17618835 69.14299393 -36.89925171 69.16880035 -37.64422607 69.19538879 C-41.31649172 69.19742707 -42.96281092 68.91287333 -45.73950195 66.43676758 C-47.41392812 63.3872703 -47.78430555 61.66487079 -47.77734375 58.21484375 C-47.77798828 57.20679688 -47.77863281 56.19875 -47.77929688 55.16015625 C-47.75931641 54.11859375 -47.73933594 53.07703125 -47.71875 52.00390625 C-47.72938477 50.42996094 -47.72938477 50.42996094 -47.74023438 48.82421875 C-47.67772358 41.32292291 -47.67772358 41.32292291 -46.25097656 38.82543945 C-43.12561241 36.92690082 -39.8763529 37.26277408 -36.33203125 37.3359375 C-35.55941452 37.34018234 -34.78679779 37.34442719 -33.99076843 37.34880066 C-31.52474008 37.36558442 -29.05953104 37.40323478 -26.59375 37.44140625 C-24.92123577 37.45645354 -23.24870872 37.47014187 -21.57617188 37.48242188 C-17.47754922 37.51548679 -13.37953849 37.56726597 -9.28125 37.62890625 C-9.30219727 36.68571533 -9.32314453 35.74252441 -9.34472656 34.77075195 C-9.41306428 31.25763101 -9.46312747 27.7452204 -9.50097656 24.23168945 C-9.52104203 22.71367215 -9.54830134 21.19573166 -9.58300781 19.67797852 C-9.63175393 17.49085503 -9.65426805 15.30475673 -9.671875 13.1171875 C-9.69282227 11.80274658 -9.71376953 10.48830566 -9.73535156 9.1340332 C-8.93100386 2.92542028 -6.29191202 -0.00497428 0 0 Z " fill="#FCFCFC" transform="translate(403.28125,206.37109375)"/>
<path d="M0 0 C0.94543671 -0.01283524 1.89087341 -0.02567047 2.86495972 -0.03889465 C4.41317917 -0.04997505 4.41317917 -0.04997505 5.99267578 -0.0612793 C7.05277863 -0.06935104 8.11288147 -0.07742279 9.20510864 -0.08573914 C11.45980178 -0.09960771 13.71451615 -0.11031737 15.96923828 -0.11816406 C19.38892852 -0.13525289 22.80762065 -0.17909938 26.22705078 -0.22338867 C28.41975201 -0.23352623 30.61246147 -0.24203899 32.80517578 -0.2487793 C33.81707977 -0.26628738 34.82898376 -0.28379547 35.87155151 -0.30183411 C43.27677833 -0.27965865 51.49742989 0.66032469 57.31832886 5.69535828 C60.86238233 9.85261883 61.73381976 12.63902917 61.81298828 17.98950195 C61.83876953 19.02719727 61.86455078 20.06489258 61.89111328 21.1340332 C61.51707172 24.6028234 60.63866882 26.39811188 58.56298828 29.17700195 C55.56298828 31.17700195 55.56298828 31.17700195 52.56298828 31.17700195 C52.56298828 31.83700195 52.56298828 32.49700195 52.56298828 33.17700195 C53.47048828 33.40387695 54.37798828 33.63075195 55.31298828 33.86450195 C59.60110298 35.59624058 61.52288614 38.09679768 63.56298828 42.17700195 C64.09078095 48.38871565 64.30702471 53.93535095 60.56298828 59.17700195 C54.78340301 65.0941964 48.19389417 67.27420097 39.96728516 67.53344727 C37.90542393 67.53965292 35.8434647 67.52950749 33.78173828 67.50512695 C32.13969421 67.5023172 32.13969421 67.5023172 30.46447754 67.49945068 C28.16850707 67.4927661 25.87254729 67.47892398 23.57666016 67.45825195 C20.04595472 67.42685046 16.5156951 67.41725188 12.98486328 67.41137695 C10.75048278 67.40221605 8.51610684 67.39184321 6.28173828 67.38012695 C5.22144409 67.37587708 4.1611499 67.3716272 3.06872559 67.36724854 C2.09681274 67.35764099 1.1248999 67.34803345 0.12353516 67.33813477 C-0.73534302 67.33130676 -1.59422119 67.32447876 -2.47912598 67.31744385 C-4.43701172 67.17700195 -4.43701172 67.17700195 -5.43701172 66.17700195 C-5.5363632 64.15749986 -5.5650068 62.13449281 -5.56640625 60.11254883 C-5.56955841 58.81450317 -5.57271057 57.51645752 -5.57595825 56.17907715 C-5.57416847 54.75130174 -5.57211752 53.32352664 -5.56982422 51.89575195 C-5.5704973 50.44226058 -5.57146736 48.98876931 -5.57272339 47.53527832 C-5.57420018 44.48534069 -5.57204642 41.43543229 -5.56738281 38.38549805 C-5.56168552 34.46769636 -5.56496463 30.54996317 -5.57095528 26.632164 C-5.5745614 23.62969442 -5.57342207 20.62724118 -5.57082748 17.62477112 C-5.57015836 16.17981458 -5.57098614 14.73485657 -5.57330704 13.28990173 C-5.57583437 11.27375312 -5.57130223 9.25759933 -5.56640625 7.24145508 C-5.56561066 6.09197388 -5.56481506 4.94249268 -5.56399536 3.75817871 C-5.35385365 -0.51333909 -3.84833243 0.04536541 0 0 Z " fill="#1E3558" transform="translate(280.43701171875,803.822998046875)"/>
<path d="M0 0 C0.83975876 -0.00990463 1.67951752 -0.01980927 2.54472351 -0.03001404 C3.46272736 -0.02551239 4.3807312 -0.02101074 5.32655334 -0.01637268 C6.29592331 -0.02323593 7.26529327 -0.03009918 8.26403809 -0.03717041 C11.47521016 -0.05550365 14.6858967 -0.05159151 17.89710999 -0.0459137 C20.12526611 -0.05047243 22.35342083 -0.05577708 24.58157349 -0.0617981 C29.25476284 -0.07074209 33.92778143 -0.06829145 38.60096741 -0.05836487 C44.59471191 -0.046875 50.5878673 -0.06708084 56.58153439 -0.09628201 C61.18401851 -0.11461346 65.78636069 -0.1143576 70.38887215 -0.10864449 C72.59890634 -0.10849089 74.80894993 -0.11456667 77.01894951 -0.12693596 C80.10753888 -0.14178578 83.19502999 -0.13121257 86.28358459 -0.11402893 C87.65755402 -0.12853088 87.65755402 -0.12853088 89.0592804 -0.14332581 C95.23907149 -0.07119851 95.23907149 -0.07119851 98.43754578 2.25593567 C100.26280161 4.97268144 100.37211694 6.6629645 100.36585999 9.9228363 C100.36650452 10.97922302 100.36714905 12.03560974 100.36781311 13.12400818 C100.34783264 14.2216449 100.32785217 15.31928162 100.30726624 16.45018005 C100.31435608 17.55168396 100.32144592 18.65318787 100.32875061 19.78807068 C100.26449238 27.87966479 100.26449238 27.87966479 98.60265255 30.01846409 C96.47402406 31.70037021 95.42774416 31.76640561 92.73953247 31.77536011 C91.89977371 31.78526474 91.06001495 31.79516937 90.19480896 31.80537415 C89.27680511 31.8008725 88.35880127 31.79637085 87.41297913 31.79173279 C86.44360916 31.79859604 85.4742392 31.80545929 84.47549438 31.81253052 C81.26432231 31.83086376 78.05363577 31.82695161 74.84242249 31.8212738 C72.61426636 31.82583254 70.38611164 31.83113718 68.15795898 31.8371582 C63.48476963 31.8461022 58.81175104 31.84365155 54.13856506 31.83372498 C48.14482056 31.82223511 42.15166517 31.84244095 36.15799809 31.87164211 C31.55551396 31.88997357 26.95317178 31.8897177 22.35066032 31.88400459 C20.14062613 31.883851 17.93058254 31.88992677 15.72058296 31.90229607 C12.6319936 31.91714589 9.54450248 31.90657268 6.45594788 31.88938904 C5.08197845 31.90389099 5.08197845 31.90389099 3.68025208 31.91868591 C-2.49953902 31.84655862 -2.49953902 31.84655862 -5.69801331 29.51942444 C-7.52326914 26.80267867 -7.63258447 25.11239561 -7.62632751 21.8525238 C-7.62697205 20.79613708 -7.62761658 19.73975037 -7.62828064 18.65135193 C-7.60830017 17.55371521 -7.5883197 16.45607849 -7.56773376 15.32518005 C-7.57482361 14.22367615 -7.58191345 13.12217224 -7.58921814 11.98728943 C-7.52495991 3.89569532 -7.52495991 3.89569532 -5.86312008 1.75689602 C-3.73449159 0.07498989 -2.68821169 0.0089545 0 0 Z " fill="#FEFDFC" transform="translate(569.1302337646484,243.61231994628906)"/>
<path d="M0 0 C0.9583374 0.00523682 1.9166748 0.01047363 2.90405273 0.01586914 C4.45576172 0.02070312 4.45576172 0.02070312 6.03881836 0.02563477 C7.12743164 0.03401367 8.21604492 0.04239258 9.33764648 0.05102539 C10.97636719 0.05779297 10.97636719 0.05779297 12.64819336 0.06469727 C15.35723144 0.07652713 18.06616248 0.09300996 20.77514648 0.11352539 C26.10427049 9.77736656 29.81700552 20.15288353 33.77514648 30.42602539 C34.48043492 32.24585772 35.18616113 34.06552045 35.89233398 35.88500977 C37.2467791 39.37706234 38.5969559 42.87071209 39.94311523 46.3659668 C41.08289287 49.32483963 42.23003462 52.28054488 43.38842773 55.23217773 C43.84604492 56.40345215 44.30366211 57.57472656 44.77514648 58.78149414 C45.36295898 60.27652466 45.36295898 60.27652466 45.96264648 61.80175781 C46.77514648 64.11352539 46.77514648 64.11352539 46.77514648 66.11352539 C39.18514648 66.11352539 31.59514648 66.11352539 23.77514648 66.11352539 C20.77514648 58.11352539 20.77514648 58.11352539 20.77514648 56.11352539 C13.18514648 56.11352539 5.59514648 56.11352539 -2.22485352 56.11352539 C-2.55485352 59.08352539 -2.88485352 62.05352539 -3.22485352 65.11352539 C-4.22485352 66.11352539 -4.22485352 66.11352539 -6.35791016 66.22705078 C-7.27435303 66.22181396 -8.1907959 66.21657715 -9.13500977 66.21118164 C-10.12436523 66.20795898 -11.1137207 66.20473633 -12.13305664 66.20141602 C-13.17397461 66.19303711 -14.21489258 66.1846582 -15.28735352 66.17602539 C-16.33213867 66.17151367 -17.37692383 66.16700195 -18.45336914 66.16235352 C-21.04392011 66.15052452 -23.6343591 66.13404228 -26.22485352 66.11352539 C-25.64552047 59.73975948 -23.60894202 54.23495466 -21.33032227 48.28149414 C-20.9416951 47.24970535 -20.55306793 46.21791656 -20.15266418 45.15486145 C-18.91256475 41.86768273 -17.66250574 38.58439221 -16.41235352 35.30102539 C-15.58294402 33.10530102 -14.75416164 30.90933966 -13.92602539 28.71313477 C-10.99377613 20.95247891 -8.05966706 13.19312866 -5.01904297 5.47412109 C-4.69813187 4.65893509 -4.37722076 3.84374908 -4.04658508 3.00386047 C-2.80297535 0.14302464 -2.80297535 0.14302464 0 0 Z " fill="#1E3457" transform="translate(391.224853515625,804.886474609375)"/>
<path d="M0 0 C12.5915625 -0.0309375 12.5915625 -0.0309375 25.4375 -0.0625 C28.09095459 -0.071604 30.74440918 -0.08070801 33.47827148 -0.09008789 C35.56754506 -0.09300686 37.65681919 -0.09555546 39.74609375 -0.09765625 C40.84215942 -0.10277222 41.9382251 -0.10788818 43.06750488 -0.11315918 C44.10282349 -0.11328003 45.13814209 -0.11340088 46.20483398 -0.11352539 C47.10862289 -0.115746 48.0124118 -0.11796661 48.94358826 -0.12025452 C51 0 51 0 52 1 C52.07325436 3.6986905 52.09222351 6.36502556 52.0625 9.0625 C52.041875 11.681875 52.02125 14.30125 52 17 C42.1 17 32.2 17 22 17 C22 19.64 22 22.28 22 25 C22.81267334 24.99476318 23.62534668 24.98952637 24.46264648 24.98413086 C28.12092322 24.96343006 31.77918767 24.95036197 35.4375 24.9375 C36.71689453 24.92912109 37.99628906 24.92074219 39.31445312 24.91210938 C41.13686523 24.90727539 41.13686523 24.90727539 42.99609375 24.90234375 C44.12200928 24.89710693 45.2479248 24.89187012 46.40795898 24.88647461 C49 25 49 25 50 26 C50.07320163 28.5327765 50.09227569 31.03103918 50.0625 33.5625 C50.041875 36.016875 50.02125 38.47125 50 41 C40.76 41 31.52 41 22 41 C22 43.97 22 46.94 22 50 C31.9 50 41.8 50 52 50 C52 55.61 52 61.22 52 67 C34.84 67 17.68 67 0 67 C0 44.89 0 22.78 0 0 Z " fill="#1D3356" transform="translate(697,804)"/>
<path d="M0 0 C0.8604744 -0.00846954 1.72094879 -0.01693909 2.60749817 -0.02566528 C5.45674352 -0.04909603 8.30545068 -0.05005591 11.15478516 -0.04882812 C13.13392352 -0.05592672 15.11305981 -0.06362527 17.0921936 -0.07189941 C21.24332395 -0.08535868 25.39426408 -0.0869068 29.54541016 -0.08105469 C34.8643536 -0.07516135 40.18238339 -0.1057284 45.50115013 -0.14617157 C49.58984288 -0.17202752 53.67831516 -0.17492781 57.7670784 -0.17127991 C59.72789428 -0.17297355 61.68872007 -0.18263946 63.64945602 -0.20042419 C66.39322656 -0.22256941 69.13514186 -0.21293466 71.87890625 -0.1953125 C72.68843246 -0.20857574 73.49795868 -0.22183899 74.33201599 -0.23550415 C78.57699881 -0.17218059 80.1225989 0.06648807 83.57351685 2.7996521 C85.79916091 5.72236939 86.19188495 6.99492565 86.16259766 10.61523438 C86.16001953 11.57816406 86.15744141 12.54109375 86.15478516 13.53320312 C86.12642578 14.52707031 86.09806641 15.5209375 86.06884766 16.54492188 C86.07271484 18.04732422 86.07271484 18.04732422 86.07666016 19.58007812 C85.97832775 26.90584237 85.97832775 26.90584237 84.27980804 29.03823948 C81.31427427 31.43304993 77.57581445 30.84366122 73.92236328 30.82397461 C73.03916916 30.83083786 72.15597504 30.83770111 71.24601746 30.84477234 C68.3222147 30.86309653 65.39894559 30.8591952 62.47509766 30.85351562 C60.44632797 30.85807442 58.41755982 30.86337908 56.38879395 30.86940002 C52.13510874 30.87834195 47.88161117 30.87589532 43.62792969 30.8659668 C38.16990448 30.85447022 32.71252555 30.87469383 27.25458527 30.90388393 C23.06475697 30.92220585 18.87508473 30.92196158 14.68522644 30.91624641 C12.67253207 30.91609274 10.65982743 30.92217514 8.64717102 30.93453789 C5.8361421 30.94937214 3.02632242 30.93882723 0.21533203 30.92163086 C-1.03779533 30.93613281 -1.03779533 30.93613281 -2.3162384 30.95092773 C-7.93756291 30.87871014 -7.93756291 30.87871014 -10.44729614 28.54592896 C-11.65994024 25.92553592 -11.81901528 23.98961729 -11.82958984 21.10351562 C-11.83345703 20.09224609 -11.83732422 19.08097656 -11.84130859 18.0390625 C-11.82970703 16.98912109 -11.81810547 15.93917969 -11.80615234 14.85742188 C-11.81775391 13.80361328 -11.82935547 12.74980469 -11.84130859 11.6640625 C-11.83744141 10.65408203 -11.83357422 9.64410156 -11.82958984 8.60351562 C-11.82620605 7.68111084 -11.82282227 6.75870605 -11.81933594 5.80834961 C-11.43115234 3.41992188 -11.43115234 3.41992188 -10.43383789 1.79689026 C-7.2311997 -0.40511871 -3.75471289 -0.01352497 0 0 Z " fill="#FAFBFB" transform="translate(577.43115234375,434.580078125)"/>
<path d="M0 0 C1.8569751 -0.00472824 1.8569751 -0.00472824 3.75146484 -0.009552 C5.11295609 -0.00776222 6.47444701 -0.00571127 7.8359375 -0.00341797 C9.22216814 -0.00409106 10.60839867 -0.00506113 11.99462891 -0.00631714 C14.90333172 -0.00779387 17.81200387 -0.00564037 20.72070312 -0.00097656 C24.45690348 0.00472073 28.19303202 0.00144159 31.92922974 -0.00454903 C34.79273016 -0.00815532 37.65621343 -0.00701574 40.51971436 -0.00442123 C41.89768482 -0.00375215 43.27565682 -0.00457973 44.65362549 -0.00690079 C46.57637504 -0.00942839 48.49913002 -0.0048957 50.421875 0 C52.06615479 0.00119339 52.06615479 0.00119339 53.74365234 0.00241089 C56.2109375 0.12939453 56.2109375 0.12939453 57.2109375 1.12939453 C57.31080725 3.97274501 57.34971631 6.78636616 57.3359375 9.62939453 C57.33980469 10.42732422 57.34367188 11.22525391 57.34765625 12.04736328 C57.33754517 18.00278686 57.33754517 18.00278686 56.2109375 19.12939453 C54.7222189 19.21608885 53.2294925 19.23642947 51.73828125 19.22705078 C50.83916016 19.22382812 49.94003906 19.22060547 49.01367188 19.21728516 C48.06814453 19.20890625 47.12261719 19.20052734 46.1484375 19.19189453 C45.19904297 19.18738281 44.24964844 19.18287109 43.27148438 19.17822266 C40.91790685 19.16639563 38.56445273 19.14991478 36.2109375 19.12939453 C36.21315811 19.7159935 36.21537872 20.30259247 36.21766663 20.90696716 C36.2397196 26.98964837 36.25484414 33.0723183 36.26586914 39.1550293 C36.27091075 41.42782044 36.27774387 43.70060833 36.28637695 45.97338867 C36.29845011 49.23243004 36.30416737 52.4914287 36.30859375 55.75048828 C36.31375504 56.77339462 36.31891632 57.79630096 36.32423401 58.85020447 C36.32430954 59.79110428 36.32438507 60.73200409 36.32446289 61.70141602 C36.3266835 62.53414536 36.32890411 63.36687469 36.33119202 64.22483826 C36.2109375 66.12939453 36.2109375 66.12939453 35.2109375 67.12939453 C33.73441086 67.2282025 32.25326514 67.26018699 30.7734375 67.26220703 C29.43152344 67.26414062 29.43152344 67.26414062 28.0625 67.26611328 C26.65097656 67.2603125 26.65097656 67.2603125 25.2109375 67.25439453 C23.79941406 67.26019531 23.79941406 67.26019531 22.359375 67.26611328 C21.46476563 67.26482422 20.57015625 67.26353516 19.6484375 67.26220703 C18.82214844 67.2610791 17.99585938 67.25995117 17.14453125 67.25878906 C15.2109375 67.12939453 15.2109375 67.12939453 14.2109375 66.12939453 C14.11789732 64.65585105 14.09347485 63.17788862 14.09741211 61.70141602 C14.09748764 60.7605162 14.09756317 59.81961639 14.09764099 58.85020447 C14.10280228 57.82729813 14.10796356 56.80439178 14.11328125 55.75048828 C14.1146962 54.70868912 14.11611115 53.66688995 14.11756897 52.59352112 C14.1231867 49.25128359 14.1357422 45.90911196 14.1484375 42.56689453 C14.15345022 40.30712987 14.15801352 38.04736416 14.16210938 35.78759766 C14.17231294 30.23481719 14.19188486 24.68218001 14.2109375 19.12939453 C7.2809375 19.12939453 0.3509375 19.12939453 -6.7890625 19.12939453 C-6.8096875 16.18001953 -6.8303125 13.23064453 -6.8515625 10.19189453 C-6.8606665 9.26127197 -6.86977051 8.33064941 -6.87915039 7.37182617 C-6.88164795 6.64342529 -6.88414551 5.91502441 -6.88671875 5.16455078 C-6.89195557 4.41568604 -6.89719238 3.66682129 -6.90258789 2.89526367 C-6.64497535 -1.11185778 -3.26787903 0.00237177 0 0 Z " fill="#1E3457" transform="translate(540.7890625,803.87060546875)"/>
<path d="M0 0 C1.8569751 -0.00472824 1.8569751 -0.00472824 3.75146484 -0.009552 C5.11295609 -0.00776222 6.47444701 -0.00571127 7.8359375 -0.00341797 C9.22216814 -0.00409106 10.60839867 -0.00506113 11.99462891 -0.00631714 C14.90333172 -0.00779387 17.81200387 -0.00564037 20.72070312 -0.00097656 C24.45690348 0.00472073 28.19303202 0.00144159 31.92922974 -0.00454903 C34.79273016 -0.00815532 37.65621343 -0.00701574 40.51971436 -0.00442123 C41.89768482 -0.00375215 43.27565682 -0.00457973 44.65362549 -0.00690079 C46.57637504 -0.00942839 48.49913002 -0.0048957 50.421875 0 C52.06615479 0.00119339 52.06615479 0.00119339 53.74365234 0.00241089 C56.2109375 0.12939453 56.2109375 0.12939453 57.2109375 1.12939453 C57.29725624 2.47206866 57.31800223 3.81913775 57.30859375 5.16455078 C57.30609619 5.89295166 57.30359863 6.62135254 57.30102539 7.37182617 C57.29192139 8.30244873 57.28281738 9.23307129 57.2734375 10.19189453 C57.2528125 13.14126953 57.2321875 16.09064453 57.2109375 19.12939453 C50.2809375 19.12939453 43.3509375 19.12939453 36.2109375 19.12939453 C36.22253906 22.51060547 36.23414063 25.89181641 36.24609375 29.37548828 C36.25388325 32.63533433 36.25996062 35.89517936 36.26586914 39.1550293 C36.27091075 41.42782044 36.27774387 43.70060833 36.28637695 45.97338867 C36.29845011 49.23243004 36.30416737 52.4914287 36.30859375 55.75048828 C36.31375504 56.77339462 36.31891632 57.79630096 36.32423401 58.85020447 C36.32430954 59.79110428 36.32438507 60.73200409 36.32446289 61.70141602 C36.3266835 62.53414536 36.32890411 63.36687469 36.33119202 64.22483826 C36.2109375 66.12939453 36.2109375 66.12939453 35.2109375 67.12939453 C33.73441086 67.2282025 32.25326514 67.26018699 30.7734375 67.26220703 C29.43152344 67.26414062 29.43152344 67.26414062 28.0625 67.26611328 C26.65097656 67.2603125 26.65097656 67.2603125 25.2109375 67.25439453 C23.79941406 67.26019531 23.79941406 67.26019531 22.359375 67.26611328 C21.46476562 67.26482422 20.57015625 67.26353516 19.6484375 67.26220703 C18.82214844 67.2610791 17.99585938 67.25995117 17.14453125 67.25878906 C15.2109375 67.12939453 15.2109375 67.12939453 14.2109375 66.12939453 C14.11789732 64.65585105 14.09347485 63.17788862 14.09741211 61.70141602 C14.09748764 60.7605162 14.09756317 59.81961639 14.09764099 58.85020447 C14.10280228 57.82729813 14.10796356 56.80439178 14.11328125 55.75048828 C14.1146962 54.70868912 14.11611115 53.66688995 14.11756897 52.59352112 C14.1231867 49.25128359 14.1357422 45.90911196 14.1484375 42.56689453 C14.15345022 40.30712987 14.15801352 38.04736416 14.16210938 35.78759766 C14.17316189 30.23484063 14.18991726 24.68212228 14.2109375 19.12939453 C13.61031494 19.13463135 13.00969238 19.13986816 12.39086914 19.14526367 C9.68506912 19.16597467 6.97928573 19.17903578 4.2734375 19.19189453 C3.32791016 19.20027344 2.38238281 19.20865234 1.40820312 19.21728516 C0.05952148 19.22211914 0.05952148 19.22211914 -1.31640625 19.22705078 C-2.56538696 19.23490601 -2.56538696 19.23490601 -3.83959961 19.24291992 C-5.7890625 19.12939453 -5.7890625 19.12939453 -6.7890625 18.12939453 C-6.88893225 15.28604405 -6.92784131 12.4724229 -6.9140625 9.62939453 C-6.91792969 8.83146484 -6.92179687 8.03353516 -6.92578125 7.21142578 C-6.91403446 0.29256905 -6.80606479 0.00493972 0 0 Z " fill="#203759" transform="translate(455.7890625,803.87060546875)"/>
<path d="M0 0 C0.89460937 -0.00128906 1.78921875 -0.00257813 2.7109375 -0.00390625 C3.65195312 -0.00003906 4.59296875 0.00382813 5.5625 0.0078125 C6.97402344 0.00201172 6.97402344 0.00201172 8.4140625 -0.00390625 C9.75597656 -0.00197266 9.75597656 -0.00197266 11.125 0 C11.95128906 0.00112793 12.77757812 0.00225586 13.62890625 0.00341797 C15.5625 0.1328125 15.5625 0.1328125 16.5625 1.1328125 C16.65554018 2.60635598 16.67996265 4.08431841 16.67602539 5.56079102 C16.67594986 6.50169083 16.67587433 7.44259064 16.67579651 8.41200256 C16.67063522 9.43490891 16.66547394 10.45781525 16.66015625 11.51171875 C16.6587413 12.55351791 16.65732635 13.59531708 16.65586853 14.66868591 C16.6502508 18.01092344 16.6376953 21.35309507 16.625 24.6953125 C16.61998728 26.95507716 16.61542398 29.21484287 16.61132812 31.47460938 C16.60027561 37.02736641 16.58352024 42.58008475 16.5625 48.1328125 C17.3145874 48.12757568 18.0666748 48.12233887 18.84155273 48.11694336 C22.22769342 48.09624023 25.61382084 48.08317373 29 48.0703125 C30.18400391 48.06193359 31.36800781 48.05355469 32.58789062 48.04492188 C33.71259766 48.04169922 34.83730469 48.03847656 35.99609375 48.03515625 C37.03822021 48.02991943 38.08034668 48.02468262 39.15405273 48.01928711 C41.5625 48.1328125 41.5625 48.1328125 42.5625 49.1328125 C42.66236975 51.97616298 42.70127881 54.78978413 42.6875 57.6328125 C42.69330078 58.82970703 42.69330078 58.82970703 42.69921875 60.05078125 C42.68910767 66.00620483 42.68910767 66.00620483 41.5625 67.1328125 C40.12509647 67.23095237 38.68293673 67.2607953 37.2421875 67.26220703 C36.32453613 67.26535919 35.40688477 67.26851135 34.46142578 67.27175903 C33.46353027 67.2697348 32.46563477 67.26771057 31.4375 67.265625 C30.42026855 67.26658173 29.40303711 67.26753845 28.35498047 67.26852417 C26.19954364 67.26920611 24.04410478 67.26735085 21.88867188 67.26318359 C18.57677629 67.25783555 15.26501633 67.26312813 11.953125 67.26953125 C9.86458303 67.26887047 7.77604115 67.26758931 5.6875 67.265625 C4.19065674 67.26866135 4.19065674 67.26866135 2.66357422 67.27175903 C1.74592285 67.26860687 0.82827148 67.26545471 -0.1171875 67.26220703 C-0.92913574 67.26141144 -1.74108398 67.26061584 -2.57763672 67.25979614 C-4.4375 67.1328125 -4.4375 67.1328125 -5.4375 66.1328125 C-5.53685148 64.11331041 -5.56549508 62.09030335 -5.56689453 60.06835938 C-5.57004669 58.77031372 -5.57319885 57.47226807 -5.57644653 56.1348877 C-5.57465675 54.70711229 -5.5726058 53.27933719 -5.5703125 51.8515625 C-5.57098558 50.39807112 -5.57195564 48.94457986 -5.57321167 47.49108887 C-5.57468846 44.44115123 -5.5725347 41.39124284 -5.56787109 38.34130859 C-5.5621738 34.42350691 -5.56545291 30.50577372 -5.57144356 26.58797455 C-5.57504969 23.58550496 -5.57391035 20.58305173 -5.57131577 17.58058167 C-5.57064664 16.13562512 -5.57147442 14.69066711 -5.57379532 13.24571228 C-5.57632265 11.22956367 -5.57179052 9.21340988 -5.56689453 7.19726562 C-5.56609894 6.04778442 -5.56530334 4.89830322 -5.56448364 3.71398926 C-5.35399409 -0.56459922 -3.84760301 0.00525219 0 0 Z " fill="#20375A" transform="translate(628.4375,803.8671875)"/>
<path d="M0 0 C3.83625 -0.103125 7.6725 -0.20625 11.625 -0.3125 C13.42251709 -0.38078003 13.42251709 -0.38078003 15.25634766 -0.45043945 C24.07404969 -0.56519544 24.07404969 -0.56519544 27.7109375 2.39453125 C30.40442815 5.46033034 30.93002612 6.25827692 31.3125 10.3125 C30.95271042 14.55801703 30.01906749 16.06972861 27 19 C26.34 19 25.68 19 25 19 C25.77537109 20.15628906 25.77537109 20.15628906 26.56640625 21.3359375 C27.22511719 22.33882812 27.88382812 23.34171875 28.5625 24.375 C29.55443359 25.87160156 29.55443359 25.87160156 30.56640625 27.3984375 C31.03949219 28.25695312 31.51257813 29.11546875 32 30 C31.67 30.66 31.34 31.32 31 32 C27.48810455 32.63595692 24.48671481 32.85017139 21 32 C17.96436502 29.05506061 15.87233889 25.78187657 14 22 C14 21.34 14 20.68 14 20 C13.01 20 12.02 20 11 20 C11 23.96 11 27.92 11 32 C7.37 32 3.74 32 0 32 C0 21.44 0 10.88 0 0 Z " fill="#1D3254" transform="translate(424,887)"/>
<path d="M0 0 C3.91220408 0.04890255 5.66709172 1.16218151 8.5 3.8125 C9.83352026 5.19883294 11.14572844 6.60593546 12.4375 8.03125 C13.45650391 9.10439453 13.45650391 9.10439453 14.49609375 10.19921875 C16.16281071 11.95983526 17.80799874 13.73625251 19.4375 15.53125 C19.52837891 14.03271484 19.52837891 14.03271484 19.62109375 12.50390625 C19.70488281 11.21355469 19.78867187 9.92320312 19.875 8.59375 C19.95621094 7.30597656 20.03742187 6.01820313 20.12109375 4.69140625 C20.4375 1.53125 20.4375 1.53125 21.4375 0.53125 C23.25 0.3984375 23.25 0.3984375 25.4375 0.40625 C26.159375 0.40367187 26.88125 0.40109375 27.625 0.3984375 C29.4375 0.53125 29.4375 0.53125 30.4375 1.53125 C30.52540975 3.82276417 30.54444038 6.11697524 30.53515625 8.41015625 C30.5337413 9.0968187 30.53232635 9.78348114 30.53086853 10.49095154 C30.52525479 12.69192801 30.51270007 14.89280409 30.5 17.09375 C30.49498676 18.58268083 30.49042355 20.07161324 30.48632812 21.56054688 C30.47528093 25.21748075 30.45800713 28.87435558 30.4375 32.53125 C26.54642169 33.03188555 22.96330182 33.45692627 19.50830078 31.36083984 C17.71681683 29.73078743 16.10310504 28.03405908 14.5 26.21875 C13.93732422 25.62384766 13.37464844 25.02894531 12.79492188 24.41601562 C10.41735454 21.87369452 8.37510571 19.43765857 6.4375 16.53125 C6.1075 21.81125 5.7775 27.09125 5.4375 32.53125 C-1.49609375 32.62890625 -1.49609375 32.62890625 -3.5625 32.53125 C-5.44569268 30.64805732 -4.69304285 27.41194863 -4.6953125 24.90625 C-4.69626923 24.24415527 -4.69722595 23.58206055 -4.69821167 22.89990234 C-4.69889326 21.49772039 -4.69704042 20.0955353 -4.69287109 18.69335938 C-4.68752246 16.54029287 -4.6928167 14.38743498 -4.69921875 12.234375 C-4.69855796 10.87499954 -4.69727679 9.5156242 -4.6953125 8.15625 C-4.69418457 6.91101563 -4.69305664 5.66578125 -4.69189453 4.3828125 C-4.50131823 0.18294222 -4.296515 0.64070838 0 0 Z " fill="#1B2F52" transform="translate(561.5625,886.46875)"/>
<path d="M0 0 C1.65322266 0.01740234 1.65322266 0.01740234 3.33984375 0.03515625 C4.44457031 0.04417969 5.54929687 0.05320312 6.6875 0.0625 C7.54214844 0.07410156 8.39679687 0.08570313 9.27734375 0.09765625 C10.99565615 4.00803563 12.70433974 7.92243839 14.40429688 11.84082031 C14.98370955 13.17269172 15.56571931 14.50343647 16.15039062 15.83300781 C16.99126659 17.74642965 17.82266069 19.66373425 18.65234375 21.58203125 C19.15507813 22.73413086 19.6578125 23.88623047 20.17578125 25.07324219 C21.27734375 28.09765625 21.27734375 28.09765625 21.27734375 32.09765625 C17.97734375 32.09765625 14.67734375 32.09765625 11.27734375 32.09765625 C10.61734375 30.44765625 9.95734375 28.79765625 9.27734375 27.09765625 C4.98734375 26.76765625 0.69734375 26.43765625 -3.72265625 26.09765625 C-4.05265625 28.07765625 -4.38265625 30.05765625 -4.72265625 32.09765625 C-8.35265625 32.09765625 -11.98265625 32.09765625 -15.72265625 32.09765625 C-13.48914946 25.12335118 -10.88808896 18.36670591 -8.09765625 11.59765625 C-7.6903125 10.59734375 -7.28296875 9.59703125 -6.86328125 8.56640625 C-3.39827568 0.12188937 -3.39827568 0.12188937 0 0 Z " fill="#1B2F51" transform="translate(643.72265625,886.90234375)"/>
<path d="M0 0 C3.69379914 2.40899944 5.81994491 5.2742627 7.25 9.4375 C8.09187354 13.84648721 7.60340034 17.28525729 5.5 21.25 C2.7119476 25.19974089 0.79886825 26.92121058 -3.75 28.4375 C-10.20826265 28.97568855 -13.44169854 28.18453632 -18.75 24.4375 C-22.52485944 20.19527701 -23.0086233 15.99372971 -22.75 10.4375 C-21.5670899 5.84686873 -19.48397153 2.55083912 -15.5 -0.0625 C-10.2401396 -2.58004002 -5.23111307 -2.58202376 0 0 Z " fill="#FAFBFB" transform="translate(622.75,395.5625)"/>
<path d="M0 0 C3.96 0 7.92 0 12 0 C13.79730779 4.01839552 15.58800256 8.03952202 17.375 12.0625 C17.88289063 13.19623047 18.39078125 14.32996094 18.9140625 15.49804688 C21.32540962 20.93944202 23.60418017 26.20650684 25 32 C21.37 32 17.74 32 14 32 C13.34 30.35 12.68 28.7 12 27 C8.04 27 4.08 27 0 27 C-0.99 29.475 -0.99 29.475 -2 32 C-5.3 32 -8.6 32 -12 32 C-11.41364787 27.54839132 -10.2699732 23.84522514 -8.49609375 19.7265625 C-8.00302734 18.57285156 -7.50996094 17.41914062 -7.00195312 16.23046875 C-6.48568359 15.04066406 -5.96941406 13.85085938 -5.4375 12.625 C-4.91736328 11.41199219 -4.39722656 10.19898438 -3.86132812 8.94921875 C-2.58010382 5.96361348 -1.2908333 2.98146339 0 0 Z " fill="#1B2E51" transform="translate(363,887)"/>
<path d="M0 0 C1.5631897 0.00785522 1.5631897 0.00785522 3.15795898 0.01586914 C4.28266602 0.0190918 5.40737305 0.02231445 6.56616211 0.02563477 C7.75016602 0.03401367 8.93416992 0.04239258 10.15405273 0.05102539 C11.34192383 0.05553711 12.52979492 0.06004883 13.75366211 0.06469727 C16.69967499 0.07652864 19.64558954 0.09301252 22.59155273 0.11352539 C22.59155273 2.75352539 22.59155273 5.39352539 22.59155273 8.11352539 C17.31155273 8.11352539 12.03155273 8.11352539 6.59155273 8.11352539 C6.59155273 9.76352539 6.59155273 11.41352539 6.59155273 13.11352539 C11.54155273 13.11352539 16.49155273 13.11352539 21.59155273 13.11352539 C21.59155273 15.09352539 21.59155273 17.07352539 21.59155273 19.11352539 C16.97155273 19.11352539 12.35155273 19.11352539 7.59155273 19.11352539 C7.59155273 20.76352539 7.59155273 22.41352539 7.59155273 24.11352539 C9.19836914 24.09612305 9.19836914 24.09612305 10.83764648 24.07836914 C12.23478017 24.0689924 13.63191572 24.05989208 15.02905273 24.05102539 C15.73610352 24.04264648 16.4431543 24.03426758 17.17163086 24.02563477 C18.97848833 24.01698951 20.78542876 24.06132528 22.59155273 24.11352539 C23.59155273 25.11352539 23.59155273 25.11352539 23.59155273 32.11352539 C14.68155273 32.11352539 5.77155273 32.11352539 -3.40844727 32.11352539 C-3.43135964 27.71689506 -3.4512856 23.32047052 -3.46337891 18.92382812 C-3.46841847 17.42707621 -3.47525014 15.93032923 -3.48388672 14.43359375 C-3.49596885 12.28652732 -3.50167918 10.13952577 -3.50610352 7.99243164 C-3.51134033 6.69893799 -3.51657715 5.40544434 -3.52197266 4.07275391 C-3.37182617 0.15893555 -3.37182617 0.15893555 0 0 Z " fill="#1C2D4F" transform="translate(497.408447265625,886.886474609375)"/>
<path d="M0 0 C4.5320683 3.73895635 6.80301722 6.51023687 7.5 12.484375 C7.36013448 17.47291199 5.28527046 21.01710537 2.0625 24.734375 C-1.42800622 27.35225466 -4.10799858 27.97074263 -8.375 27.796875 C-13.40656612 27.03194096 -16.68986088 24.57576531 -19.9375 20.734375 C-22.2536257 16.84576263 -22.60877307 13.17637949 -21.9375 8.734375 C-20.55630896 4.97156266 -18.6789055 2.29042913 -15.4375 -0.140625 C-10.17293635 -2.50967864 -5.18942135 -3.38986395 0 0 Z " fill="#F9FAFB" transform="translate(621.9375,479.265625)"/>
<path d="M0 0 C0.85711578 -0.0033284 1.71423157 -0.0066568 2.59732056 -0.01008606 C4.41480979 -0.0151595 6.23230838 -0.01749426 8.04980469 -0.01733398 C10.83283867 -0.01951657 13.61547395 -0.03765691 16.3984375 -0.05664062 C18.16145697 -0.05957522 19.92447834 -0.06155957 21.6875 -0.0625 C22.52195648 -0.06968552 23.35641296 -0.07687103 24.21615601 -0.08427429 C30.13332656 -0.06085521 30.13332656 -0.06085521 33.4765625 2.16796875 C33.1465625 2.82796875 32.8165625 3.48796875 32.4765625 4.16796875 C31.9815625 3.67296875 31.9815625 3.67296875 31.4765625 3.16796875 C12.1715625 2.67296875 12.1715625 2.67296875 -7.5234375 2.16796875 C-7.5234375 39.78796875 -7.5234375 77.40796875 -7.5234375 116.16796875 C4.3565625 115.83796875 16.2365625 115.50796875 28.4765625 115.16796875 C28.8065625 99.98796875 29.1365625 84.80796875 29.4765625 69.16796875 C29.8065625 69.16796875 30.1365625 69.16796875 30.4765625 69.16796875 C30.50183195 75.84317215 30.51939518 82.51836332 30.53149414 89.19360352 C30.53653575 91.46639466 30.54336887 93.73918255 30.55200195 96.01196289 C30.56407511 99.27100426 30.56979237 102.53000292 30.57421875 105.7890625 C30.57938004 106.81196884 30.58454132 107.83487518 30.58985901 108.88877869 C30.58993454 109.8296785 30.59001007 110.77057831 30.59008789 111.73999023 C30.5923085 112.57271957 30.59452911 113.40544891 30.59681702 114.26341248 C30.4765625 116.16796875 30.4765625 116.16796875 29.4765625 117.16796875 C26.5922243 117.25662083 23.73194092 117.28318171 20.84765625 117.265625 C19.55131004 117.26350258 19.55131004 117.26350258 18.22877502 117.26133728 C15.45716958 117.25572114 12.6856437 117.24316594 9.9140625 117.23046875 C8.0397147 117.22545583 6.16536565 117.22089256 4.29101562 117.21679688 C-0.31383294 117.20574647 -4.91862171 117.18847105 -9.5234375 117.16796875 C-9.54676719 102.06072184 -9.56441702 86.95347632 -9.57524967 71.84621525 C-9.58041248 64.83212241 -9.58745489 57.81804075 -9.59887695 50.80395508 C-9.60988438 44.04128807 -9.61571369 37.27863511 -9.61831474 30.51595879 C-9.62016953 27.92944595 -9.62379117 25.34293378 -9.62916756 22.75642586 C-9.63637401 19.1475802 -9.63742861 15.53878328 -9.63696289 11.92993164 C-9.64055817 10.84884125 -9.64415344 9.76775085 -9.64785767 8.65390015 C-9.646483 7.67648361 -9.64510834 6.69906708 -9.64369202 5.69203186 C-9.64461381 4.83752976 -9.6455356 3.98302767 -9.64648533 3.10263157 C-9.34038064 -1.71020717 -3.67840325 0.0048818 0 0 Z " fill="#091C41" transform="translate(284.5234375,669.83203125)"/>
<path d="M0 0 C0.89460937 -0.00128906 1.78921875 -0.00257813 2.7109375 -0.00390625 C3.65195312 -0.00003906 4.59296875 0.00382813 5.5625 0.0078125 C6.97402344 0.00201172 6.97402344 0.00201172 8.4140625 -0.00390625 C9.75597656 -0.00197266 9.75597656 -0.00197266 11.125 0 C11.95128906 0.00112793 12.77757812 0.00225586 13.62890625 0.00341797 C15.5625 0.1328125 15.5625 0.1328125 16.5625 1.1328125 C16.65554018 2.60635598 16.67996265 4.08431841 16.67602539 5.56079102 C16.67594986 6.50169083 16.67587433 7.44259064 16.67579651 8.41200256 C16.67063522 9.43490891 16.66547394 10.45781525 16.66015625 11.51171875 C16.6587413 12.55351791 16.65732635 13.59531708 16.65586853 14.66868591 C16.6502508 18.01092344 16.6376953 21.35309507 16.625 24.6953125 C16.61998728 26.95507716 16.61542398 29.21484287 16.61132812 31.47460938 C16.60027561 37.02736641 16.58352024 42.58008475 16.5625 48.1328125 C17.3145874 48.12757568 18.0666748 48.12233887 18.84155273 48.11694336 C22.22769342 48.09624023 25.61382084 48.08317373 29 48.0703125 C30.18400391 48.06193359 31.36800781 48.05355469 32.58789062 48.04492188 C33.71259766 48.04169922 34.83730469 48.03847656 35.99609375 48.03515625 C37.03822021 48.02991943 38.08034668 48.02468262 39.15405273 48.01928711 C41.5625 48.1328125 41.5625 48.1328125 42.5625 49.1328125 C42.66236975 51.97616298 42.70127881 54.78978413 42.6875 57.6328125 C42.69330078 58.82970703 42.69330078 58.82970703 42.69921875 60.05078125 C42.68910767 66.00620483 42.68910767 66.00620483 41.5625 67.1328125 C40.12509647 67.23095237 38.68293673 67.2607953 37.2421875 67.26220703 C36.32453613 67.26535919 35.40688477 67.26851135 34.46142578 67.27175903 C33.46353027 67.2697348 32.46563477 67.26771057 31.4375 67.265625 C30.42026855 67.26658173 29.40303711 67.26753845 28.35498047 67.26852417 C26.19954364 67.26920611 24.04410478 67.26735085 21.88867188 67.26318359 C18.57677629 67.25783555 15.26501633 67.26312813 11.953125 67.26953125 C9.86458303 67.26887047 7.77604115 67.26758931 5.6875 67.265625 C4.19065674 67.26866135 4.19065674 67.26866135 2.66357422 67.27175903 C1.74592285 67.26860687 0.82827148 67.26545471 -0.1171875 67.26220703 C-0.92913574 67.26141144 -1.74108398 67.26061584 -2.57763672 67.25979614 C-4.4375 67.1328125 -4.4375 67.1328125 -5.4375 66.1328125 C-5.53685148 64.11331041 -5.56549508 62.09030335 -5.56689453 60.06835938 C-5.57004669 58.77031372 -5.57319885 57.47226807 -5.57644653 56.1348877 C-5.57465675 54.70711229 -5.5726058 53.27933719 -5.5703125 51.8515625 C-5.57098558 50.39807112 -5.57195564 48.94457986 -5.57321167 47.49108887 C-5.57468846 44.44115123 -5.5725347 41.39124284 -5.56787109 38.34130859 C-5.5621738 34.42350691 -5.56545291 30.50577372 -5.57144356 26.58797455 C-5.57504969 23.58550496 -5.57391035 20.58305173 -5.57131577 17.58058167 C-5.57064664 16.13562512 -5.57147442 14.69066711 -5.57379532 13.24571228 C-5.57632265 11.22956367 -5.57179052 9.21340988 -5.56689453 7.19726562 C-5.56609894 6.04778442 -5.56530334 4.89830322 -5.56448364 3.71398926 C-5.35399409 -0.56459922 -3.84760301 0.00525219 0 0 Z M-4.4375 2.1328125 C-4.4375 22.9228125 -4.4375 43.7128125 -4.4375 65.1328125 C10.7425 65.1328125 25.9225 65.1328125 41.5625 65.1328125 C41.5625 60.1828125 41.5625 55.2328125 41.5625 50.1328125 C39.81743385 48.38774635 37.37210857 48.89998466 34.99609375 48.81640625 C33.98345459 48.77829834 32.97081543 48.74019043 31.92749023 48.70092773 C30.63141846 48.65782471 29.33534668 48.61472168 28 48.5703125 C23.895625 48.4259375 19.79125 48.2815625 15.5625 48.1328125 C15.2325 32.9528125 14.9025 17.7728125 14.5625 2.1328125 C8.2925 2.1328125 2.0225 2.1328125 -4.4375 2.1328125 Z " fill="#041032" transform="translate(628.4375,803.8671875)"/>
<path d="M0 0 C1.8569751 -0.00472824 1.8569751 -0.00472824 3.75146484 -0.009552 C5.11295609 -0.00776222 6.47444701 -0.00571127 7.8359375 -0.00341797 C9.22216814 -0.00409106 10.60839867 -0.00506113 11.99462891 -0.00631714 C14.90333172 -0.00779387 17.81200387 -0.00564037 20.72070312 -0.00097656 C24.45690348 0.00472073 28.19303202 0.00144159 31.92922974 -0.00454903 C34.79273016 -0.00815532 37.65621343 -0.00701574 40.51971436 -0.00442123 C41.89768482 -0.00375215 43.27565682 -0.00457973 44.65362549 -0.00690079 C46.57637504 -0.00942839 48.49913002 -0.0048957 50.421875 0 C52.06615479 0.00119339 52.06615479 0.00119339 53.74365234 0.00241089 C56.2109375 0.12939453 56.2109375 0.12939453 57.2109375 1.12939453 C57.28407317 3.65988855 57.30341277 6.1624429 57.2734375 8.69189453 C57.26892578 9.4028125 57.26441406 10.11373047 57.25976562 10.84619141 C57.24794614 12.60729466 57.23001013 14.36835489 57.2109375 16.12939453 C56.8809375 16.12939453 56.5509375 16.12939453 56.2109375 16.12939453 C56.2109375 11.50939453 56.2109375 6.88939453 56.2109375 2.12939453 C36.0809375 2.12939453 15.9509375 2.12939453 -4.7890625 2.12939453 C-4.7890625 7.40939453 -4.7890625 12.68939453 -4.7890625 18.12939453 C1.8109375 18.12939453 8.4109375 18.12939453 15.2109375 18.12939453 C15.2109375 33.63939453 15.2109375 49.14939453 15.2109375 65.12939453 C21.8109375 65.12939453 28.4109375 65.12939453 35.2109375 65.12939453 C35.2109375 49.94939453 35.2109375 34.76939453 35.2109375 19.12939453 C35.5409375 19.12939453 35.8709375 19.12939453 36.2109375 19.12939453 C36.23620695 25.80459794 36.25377018 32.4797891 36.26586914 39.1550293 C36.27091075 41.42782044 36.27774387 43.70060833 36.28637695 45.97338867 C36.29845011 49.23243004 36.30416737 52.4914287 36.30859375 55.75048828 C36.31375504 56.77339462 36.31891632 57.79630096 36.32423401 58.85020447 C36.32430954 59.79110428 36.32438507 60.73200409 36.32446289 61.70141602 C36.3266835 62.53414536 36.32890411 63.36687469 36.33119202 64.22483826 C36.2109375 66.12939453 36.2109375 66.12939453 35.2109375 67.12939453 C33.73441086 67.2282025 32.25326514 67.26018699 30.7734375 67.26220703 C29.43152344 67.26414062 29.43152344 67.26414062 28.0625 67.26611328 C26.65097656 67.2603125 26.65097656 67.2603125 25.2109375 67.25439453 C23.79941406 67.26019531 23.79941406 67.26019531 22.359375 67.26611328 C21.46476562 67.26482422 20.57015625 67.26353516 19.6484375 67.26220703 C18.82214844 67.2610791 17.99585938 67.25995117 17.14453125 67.25878906 C15.2109375 67.12939453 15.2109375 67.12939453 14.2109375 66.12939453 C14.11789732 64.65585105 14.09347485 63.17788862 14.09741211 61.70141602 C14.09748764 60.7605162 14.09756317 59.81961639 14.09764099 58.85020447 C14.10280228 57.82729813 14.10796356 56.80439178 14.11328125 55.75048828 C14.1146962 54.70868912 14.11611115 53.66688995 14.11756897 52.59352112 C14.1231867 49.25128359 14.1357422 45.90911196 14.1484375 42.56689453 C14.15345022 40.30712987 14.15801352 38.04736416 14.16210938 35.78759766 C14.17316189 30.23484063 14.18991726 24.68212228 14.2109375 19.12939453 C13.61031494 19.13463135 13.00969238 19.13986816 12.39086914 19.14526367 C9.68506912 19.16597467 6.97928573 19.17903578 4.2734375 19.19189453 C3.32791016 19.20027344 2.38238281 19.20865234 1.40820312 19.21728516 C0.05952148 19.22211914 0.05952148 19.22211914 -1.31640625 19.22705078 C-2.56538696 19.23490601 -2.56538696 19.23490601 -3.83959961 19.24291992 C-5.7890625 19.12939453 -5.7890625 19.12939453 -6.7890625 18.12939453 C-6.88893225 15.28604405 -6.92784131 12.4724229 -6.9140625 9.62939453 C-6.91792969 8.83146484 -6.92179687 8.03353516 -6.92578125 7.21142578 C-6.91403446 0.29256905 -6.80606479 0.00493972 0 0 Z " fill="#08163A" transform="translate(455.7890625,803.87060546875)"/>
<path d="M0 0 C0.99 0.495 0.99 0.495 2 1 C2 21.79 2 42.58 2 64 C19.16 64 36.32 64 54 64 C50.74473771 66.17017486 49.84619504 66.24901978 46.08544922 66.24291992 C44.58907425 66.24753487 44.58907425 66.24753487 43.06246948 66.25224304 C41.98740143 66.24505753 40.91233337 66.23787201 39.8046875 66.23046875 C38.70150177 66.23001053 37.59831604 66.22955231 36.46170044 66.2290802 C34.12989221 66.22605841 31.798086 66.21817433 29.46630859 66.20581055 C25.8824149 66.18753781 22.29877919 66.18530096 18.71484375 66.18554688 C16.45312275 66.1806324 14.19140351 66.17480438 11.9296875 66.16796875 C10.85057098 66.16685593 9.77145447 66.1657431 8.65963745 66.16459656 C7.17271896 66.15502678 7.17271896 66.15502678 5.65576172 66.14526367 C4.77878632 66.14145187 3.90181091 66.13764008 2.9982605 66.13371277 C1 66 1 66 0 65 C-0.09409479 62.97505769 -0.11743122 60.9468013 -0.11352539 58.91967773 C-0.11344986 57.61840439 -0.11337433 56.31713104 -0.11329651 54.97642517 C-0.10818909 53.54548098 -0.10297308 52.11453718 -0.09765625 50.68359375 C-0.09579203 49.2277074 -0.09436815 47.77182043 -0.09336853 46.31593323 C-0.08954365 42.47720621 -0.07971364 38.63851681 -0.06866455 34.79980469 C-0.05844978 30.88542184 -0.05387077 26.97103294 -0.04882812 23.05664062 C-0.03809134 15.37107657 -0.02101529 7.68554355 0 0 Z " fill="#0A2149" transform="translate(275,805)"/>
<path d="M0 0 C3.25049988 -0.08096264 6.49898234 -0.14048115 9.75 -0.1875 C11.13058594 -0.22520508 11.13058594 -0.22520508 12.5390625 -0.26367188 C13.42851562 -0.27333984 14.31796875 -0.28300781 15.234375 -0.29296875 C16.05131836 -0.3086792 16.86826172 -0.32438965 17.70996094 -0.34057617 C20.5644157 0.08394029 21.92360711 1.0243715 24 3 C24.375 5.5625 24.375 5.5625 24 8 C22 10 22 10 19.75341797 10.22705078 C18.84221191 10.21657715 17.93100586 10.20610352 16.9921875 10.1953125 C16.00605469 10.18886719 15.01992188 10.18242188 14.00390625 10.17578125 C12.45509766 10.15064453 12.45509766 10.15064453 10.875 10.125 C9.83472656 10.11597656 8.79445313 10.10695313 7.72265625 10.09765625 C5.14834003 10.07403867 2.57414162 10.03816684 0 10 C0 6.7 0 3.4 0 0 Z " fill="#FCFCFD" transform="translate(298,845)"/>
<path d="M0 0 C3.27132607 -0.08081043 6.54066421 -0.14040709 9.8125 -0.1875 C10.74126953 -0.21263672 11.67003906 -0.23777344 12.62695312 -0.26367188 C13.9659668 -0.27817383 13.9659668 -0.27817383 15.33203125 -0.29296875 C16.56530151 -0.31653442 16.56530151 -0.31653442 17.82348633 -0.34057617 C20 0 20 0 21.8034668 1.3581543 C23 3 23 3 22.8125 5.5625 C22 8 22 8 20 10 C17.93701172 10.22705078 17.93701172 10.22705078 15.4296875 10.1953125 C14.53378906 10.18886719 13.63789063 10.18242188 12.71484375 10.17578125 C11.77769531 10.15902344 10.84054687 10.14226563 9.875 10.125 C8.93011719 10.11597656 7.98523438 10.10695313 7.01171875 10.09765625 C4.67437173 10.07404668 2.33715451 10.03817494 0 10 C0 6.7 0 3.4 0 0 Z " fill="#FAFBFB" transform="translate(297,819)"/>
<path d="M0 0 C1.8569751 -0.00472824 1.8569751 -0.00472824 3.75146484 -0.009552 C5.11295609 -0.00776222 6.47444701 -0.00571127 7.8359375 -0.00341797 C9.22216814 -0.00409106 10.60839867 -0.00506113 11.99462891 -0.00631714 C14.90333172 -0.00779387 17.81200387 -0.00564037 20.72070312 -0.00097656 C24.45690348 0.00472073 28.19303202 0.00144159 31.92922974 -0.00454903 C34.79273016 -0.00815532 37.65621343 -0.00701574 40.51971436 -0.00442123 C41.89768482 -0.00375215 43.27565682 -0.00457973 44.65362549 -0.00690079 C46.57637504 -0.00942839 48.49913002 -0.0048957 50.421875 0 C52.06615479 0.00119339 52.06615479 0.00119339 53.74365234 0.00241089 C56.2109375 0.12939453 56.2109375 0.12939453 57.2109375 1.12939453 C57.31080725 3.97274501 57.34971631 6.78636616 57.3359375 9.62939453 C57.33980469 10.42732422 57.34367188 11.22525391 57.34765625 12.04736328 C57.33754517 18.00278686 57.33754517 18.00278686 56.2109375 19.12939453 C54.7222189 19.21608885 53.2294925 19.23642947 51.73828125 19.22705078 C50.83916016 19.22382812 49.94003906 19.22060547 49.01367188 19.21728516 C48.06814453 19.20890625 47.12261719 19.20052734 46.1484375 19.19189453 C45.19904297 19.18738281 44.24964844 19.18287109 43.27148438 19.17822266 C40.91790685 19.16639563 38.56445273 19.14991478 36.2109375 19.12939453 C36.2109375 18.79939453 36.2109375 18.46939453 36.2109375 18.12939453 C42.4809375 17.79939453 48.7509375 17.46939453 55.2109375 17.12939453 C55.5409375 12.17939453 55.8709375 7.22939453 56.2109375 2.12939453 C36.0809375 2.12939453 15.9509375 2.12939453 -4.7890625 2.12939453 C-4.7890625 7.40939453 -4.7890625 12.68939453 -4.7890625 18.12939453 C1.4809375 18.12939453 7.7509375 18.12939453 14.2109375 18.12939453 C14.2109375 18.45939453 14.2109375 18.78939453 14.2109375 19.12939453 C7.2809375 19.12939453 0.3509375 19.12939453 -6.7890625 19.12939453 C-6.8096875 16.18001953 -6.8303125 13.23064453 -6.8515625 10.19189453 C-6.8606665 9.26127197 -6.86977051 8.33064941 -6.87915039 7.37182617 C-6.88164795 6.64342529 -6.88414551 5.91502441 -6.88671875 5.16455078 C-6.89195557 4.41568604 -6.89719238 3.66682129 -6.90258789 2.89526367 C-6.64497535 -1.11185778 -3.26787903 0.00237177 0 0 Z " fill="#091A3E" transform="translate(540.7890625,803.87060546875)"/>
<path d="M0 0 C1.86560789 2.79841184 2.61465798 4.67145446 3.5078125 7.8515625 C3.77207031 8.78484375 4.03632813 9.718125 4.30859375 10.6796875 C4.57800781 11.65164063 4.84742188 12.62359375 5.125 13.625 C5.40214844 14.6046875 5.67929687 15.584375 5.96484375 16.59375 C8 23.83208898 8 23.83208898 8 25 C2.72 25 -2.56 25 -8 25 C-6.85632847 21.20766882 -5.71016777 17.41612171 -4.5625 13.625 C-4.23701172 12.54476562 -3.91152344 11.46453125 -3.57617188 10.3515625 C-3.10727539 8.8046875 -3.10727539 8.8046875 -2.62890625 7.2265625 C-2.34088135 6.27346191 -2.05285645 5.32036133 -1.75610352 4.33837891 C-1 2 -1 2 0 0 Z " fill="#F7F8F9" transform="translate(485,715)"/>
<path d="M0 0 C3.31248187 -0.02888146 6.62493167 -0.04675799 9.9375 -0.0625 C10.88302734 -0.07087891 11.82855469 -0.07925781 12.80273438 -0.08789062 C14.15141602 -0.09272461 14.15141602 -0.09272461 15.52734375 -0.09765625 C16.77632446 -0.10551147 16.77632446 -0.10551147 18.05053711 -0.11352539 C20 0 20 0 21 1 C21.09311889 2.50418739 21.11746028 4.01271356 21.11352539 5.51977539 C21.11344986 6.48069595 21.11337433 7.44161652 21.11329651 8.43165588 C21.10813522 9.476436 21.10297394 10.52121613 21.09765625 11.59765625 C21.0962413 12.66165146 21.09482635 13.72564667 21.09336853 14.82188416 C21.08775064 18.23545083 21.07519511 21.648953 21.0625 25.0625 C21.05748731 27.37044176 21.052924 29.67838455 21.04882812 31.98632812 C21.0377754 37.65757426 21.02101987 43.32878253 21 49 C20.34 48.67 19.68 48.34 19 48 C19 32.82 19 17.64 19 2 C12.73 2 6.46 2 0 2 C0 1.34 0 0.68 0 0 Z " fill="#071D45" transform="translate(624,804)"/>
<path d="M0 0 C2 1 2 1 2.68603516 2.67407227 C2.98453369 3.73452759 2.98453369 3.73452759 3.2890625 4.81640625 C3.61777344 5.96206055 3.61777344 5.96206055 3.953125 7.13085938 C4.17484375 7.93330078 4.3965625 8.73574219 4.625 9.5625 C4.85445313 10.36880859 5.08390625 11.17511719 5.3203125 12.00585938 C5.88724154 14.00192203 6.44452643 16.00071919 7 18 C3.04 18 -0.92 18 -5 18 C-1.85714286 5.14285714 -1.85714286 5.14285714 0 0 Z " fill="#F3F5F6" transform="translate(400,827)"/>
<path d="M0 0 C0.66 0.33 1.32 0.66 2 1 C2.33 2.65 2.66 4.3 3 6 C-4.59 6 -12.18 6 -20 6 C-20.33 4.35 -20.66 2.7 -21 1 C-20.67 1.99 -20.34 2.98 -20 4 C-13.07 4 -6.14 4 1 4 C0.67 2.68 0.34 1.36 0 0 Z " fill="#091C42" transform="translate(435,865)"/>
<path d="M0 0 C4.62 0 9.24 0 14 0 C14 1.32 14 2.64 14 4 C9.71 4 5.42 4 1 4 C0.67 2.68 0.34 1.36 0 0 Z " fill="#223A5D" transform="translate(504,901)"/>
<path d="M0 0 C0.66 0 1.32 0 2 0 C2.99 3.3 3.98 6.6 5 10 C2.36 10 -0.28 10 -3 10 C-2.01 6.7 -1.02 3.4 0 0 Z " fill="#DADEE4" transform="translate(368,897)"/>
<path d="M0 0 C3.68006822 3.38168431 5.9785845 6.42521756 8 11 C6.33969118 12.66030882 4.40246403 12.28918251 2.125 12.375 C-0.609375 12.3671875 -0.609375 12.3671875 -3 12 C-5.125 9.5 -5.125 9.5 -6 7 C-5.34 7 -4.68 7 -4 7 C-3.67 7.66 -3.34 8.32 -3 9 C-0.69 9 1.62 9 4 9 C3.34 7.88625 2.68 6.7725 2 5.625 C0 2.25 0 2.25 0 0 Z " fill="#0D1B3E" transform="translate(448,907)"/>
<path d="M0 0 C2.97 0 5.94 0 9 0 C8.67 1.65 8.34 3.3 8 5 C5.36 5 2.72 5 0 5 C0 3.35 0 1.7 0 0 Z " fill="#F9FAFB" transform="translate(435,895)"/>
<path d="M0 0 C0.66 0 1.32 0 2 0 C2.66 3.3 3.32 6.6 4 10 C1.69 10 -0.62 10 -3 10 C-2.01 6.7 -1.02 3.4 0 0 Z " fill="#E6E9EC" transform="translate(646,897)"/>
<path d="M0 0 C1.52644141 3.93763547 0.42982376 6.7673759 -0.8125 10.6875 C-1.16957031 11.84636719 -1.52664063 13.00523437 -1.89453125 14.19921875 C-3 17 -3 17 -5 18 C-4.68917128 16.24970238 -4.37626821 14.49977306 -4.0625 12.75 C-3.88847656 11.77546875 -3.71445312 10.8009375 -3.53515625 9.796875 C-3.09620271 7.50278205 -2.59651408 5.25708029 -2 3 C-1.34 3 -0.68 3 0 3 C0 2.01 0 1.02 0 0 Z " fill="#0E1B3E" transform="translate(481,722)"/>
<path d="M0 0 C3.96 0 7.92 0 12 0 C12 0.33 12 0.66 12 1 C11.0925 1.103125 10.185 1.20625 9.25 1.3125 C5.94184965 2.01230104 4.5536718 2.90234102 2 5 C1.34 5 0.68 5 0 5 C0 3.35 0 1.7 0 0 Z " fill="#F1F3F4" transform="translate(505,906)"/>
<path d="M0 0 C0 0.66 0 1.32 0 2 C-1.58086048 2.36504603 -3.16483907 2.71660506 -4.75 3.0625 C-5.63171875 3.25972656 -6.5134375 3.45695312 -7.421875 3.66015625 C-9.98679028 3.99825872 -11.57091639 3.81158635 -14 3 C-4.58997722 -0.44419134 -4.58997722 -0.44419134 0 0 Z " fill="#F48818" transform="translate(464,120)"/>
<path d="M0 0 C-3.96 1.98 -3.96 1.98 -8 4 C-8 4.66 -8 5.32 -8 6 C-9.32 6.33 -10.64 6.66 -12 7 C-11.7421875 5.14453125 -11.7421875 5.14453125 -11 3 C-9.2578125 1.69921875 -9.2578125 1.69921875 -7.125 0.6875 C-6.42632813 0.34074219 -5.72765625 -0.00601563 -5.0078125 -0.36328125 C-3 -1 -3 -1 0 0 Z " fill="#F3A11A" transform="translate(580,582)"/>
<path d="M0 0 C1.65 0 3.3 0 5 0 C4.67 1.32 4.34 2.64 4 4 C4.99 3.67 5.98 3.34 7 3 C6.67 3.99 6.34 4.98 6 6 C3.37812506 4.95125002 2.20628639 4.35068687 0.75 1.875 C0.5025 1.25625 0.255 0.6375 0 0 Z " fill="#FEA21E" transform="translate(404,424)"/>
</svg>
